<svg width="1459" height="202" viewBox="0 0 1459 202" fill="none" xmlns="http://www.w3.org/2000/svg">
<g clip-path="url(#clip0_4702_35516)">
<path d="M58.8422 198.523C52.958 198.523 46.577 197.854 39.7185 196.516C32.8599 195.179 26.479 193 20.5948 189.961C14.7105 186.923 9.80067 182.967 5.88422 178.055C1.96777 173.144 0 167.124 0 159.996C0 157.148 0.305674 153.211 0.936126 148.224C1.56658 143.236 2.57912 138.324 4.01197 133.508C5.44481 128.692 7.39348 124.507 9.89619 120.933C12.3798 117.36 15.6085 115.582 19.5249 115.582C21.4927 115.582 23.8999 116.29 26.7465 117.723C29.593 119.156 32.5925 120.761 35.7065 122.539C38.8206 124.316 42.0875 125.921 45.469 127.355C48.8505 128.788 52.0601 129.495 55.0977 129.495C60.275 129.495 64.459 128.559 67.6685 126.686C70.8781 124.813 72.4829 121.029 72.4829 115.315C72.4829 108.359 71.1838 101.097 68.6047 93.5096C66.0255 85.9227 63.1598 78.4886 60.0458 71.1692C56.9317 63.8498 54.066 56.8553 51.4869 50.1666C48.9078 43.4778 47.6087 37.5535 47.6087 32.3745C47.6087 27.5586 49.118 23.6409 52.1556 20.6023C55.1932 17.5637 58.8422 15.2514 63.1216 13.6461C67.4011 12.0408 71.948 10.9706 76.7623 10.4355C81.5767 9.90036 85.7606 9.63281 89.3332 9.63281C96.8222 9.63281 103.241 11.7732 108.591 16.054C113.94 20.3348 118.449 25.9151 122.098 32.7759C125.747 39.6366 128.65 47.3955 130.79 56.0527C132.93 64.7098 134.573 73.3479 135.738 82.005C136.904 90.6621 137.649 98.8988 138.012 106.753C138.375 114.608 138.547 121.201 138.547 126.552C138.547 137.254 136.273 147.02 131.726 155.849C127.179 164.678 121.161 172.265 113.672 178.59C106.183 184.916 97.6628 189.828 88.1296 193.306C78.5964 196.784 68.8339 198.523 58.8422 198.523Z" fill="black"/>
<path d="M185.62 197.452C174.214 197.452 164.758 194.203 157.269 187.686C149.78 181.169 146.035 172.034 146.035 160.262C146.035 154.911 146.666 147.191 147.907 137.119C149.149 127.048 151.155 116.078 153.925 104.211C156.696 92.3429 160.211 80.2649 164.49 67.9576C168.77 55.6503 173.947 44.4515 180.003 34.3801C186.059 24.3088 193.071 16.053 200.999 9.63179C208.928 3.2106 217.888 0 227.879 0C237.871 0 246.831 3.24882 254.759 9.76556C262.688 16.2823 269.642 24.6528 275.622 34.9152C281.582 45.1777 286.722 56.5485 291.001 69.0278C295.28 81.5071 298.719 93.6806 301.298 105.548C303.877 117.416 305.807 128.328 307.049 138.323C308.291 148.318 308.921 155.809 308.921 160.797C308.921 166.511 307.947 171.633 305.979 176.181C304.011 180.73 301.337 184.571 297.955 187.686C294.574 190.801 290.504 193.209 285.785 194.91C281.067 196.611 275.927 197.452 270.406 197.452C267.197 197.452 263.815 197.089 260.243 196.381C256.67 195.674 253.422 194.47 250.48 192.77C247.538 191.069 245.093 188.852 243.125 186.081C241.157 183.31 240.183 179.965 240.183 176.048C240.183 173.372 240.278 170.467 240.45 167.352C240.622 164.237 240.45 161.294 239.915 158.523C239.38 155.752 238.215 153.44 236.438 151.567C234.661 149.694 231.719 148.758 227.612 148.758C222.091 148.758 218.48 150.592 216.78 154.242C215.079 157.893 214.239 162.04 214.239 166.683C214.239 168.652 214.334 170.525 214.506 172.302C214.678 174.079 214.774 175.952 214.774 177.921C214.774 181.666 213.837 184.781 211.965 187.285C210.093 189.788 207.686 191.795 204.744 193.305C201.802 194.814 198.63 195.885 195.249 196.515C191.867 197.146 188.638 197.452 185.62 197.452ZM226.542 120.13C230.115 120.13 232.56 118.83 233.897 116.25C235.235 113.67 235.903 110.861 235.903 107.823C235.903 106.752 235.769 104.383 235.502 100.732C235.235 97.0823 234.738 93.3366 234.031 89.4954C233.324 85.6541 232.388 82.2333 231.223 79.1947C230.057 76.1561 228.586 74.6464 226.809 74.6464C225.033 74.6464 223.504 76.2134 222.263 79.3285C221.021 82.4435 220.027 86.0172 219.32 90.0305C218.614 94.0437 218.117 97.885 217.849 101.535C217.582 105.185 217.448 107.651 217.448 108.893C217.448 111.931 218.117 114.549 219.454 116.785C220.791 119.021 223.16 120.13 226.542 120.13Z" fill="black"/>
<path d="M464.853 196.378C461.643 196.378 458.166 195.881 454.421 194.907C450.677 193.932 447.162 192.403 443.857 190.358C440.551 188.313 437.8 185.848 435.565 183.001C433.33 180.153 432.222 176.847 432.222 173.101C432.222 167.922 432.986 162.667 434.495 157.316C436.005 151.965 437.304 146.709 438.374 141.53C440.15 134.574 441.545 127.522 442.519 120.394C443.494 113.266 443.99 106.042 443.99 98.7226C443.99 97.4804 443.723 96.0088 443.188 94.308C442.653 92.6071 441.488 91.7663 439.711 91.7663C438.106 91.7663 436.769 92.8747 435.699 95.1106C434.629 97.3466 433.597 100.099 432.623 103.405C431.649 106.711 430.579 110.323 429.413 114.24C428.248 118.158 426.777 121.77 425 125.076C423.224 128.382 421.027 131.134 418.447 133.37C415.868 135.606 412.601 136.715 408.685 136.715C405.112 136.715 402.228 135.778 399.992 133.905C397.757 132.032 396.019 129.72 394.777 126.949C393.535 124.178 392.599 121.197 391.968 117.986C391.338 114.776 390.765 111.794 390.23 109.023C389.695 106.252 389.122 103.94 388.491 102.067C387.861 100.194 386.848 99.2577 385.416 99.2577C384.174 99.2577 383.18 99.7927 382.473 100.863C381.767 101.933 381.27 103.233 381.002 104.742C380.735 106.252 380.563 107.724 380.467 109.157C380.372 110.59 380.334 111.565 380.334 112.1C380.334 118.521 381.27 125.076 383.142 131.765C385.014 138.454 387.097 144.741 389.428 150.627C391.739 156.513 393.841 161.826 395.713 166.546C397.585 171.267 398.521 174.879 398.521 177.382C398.521 181.128 397.012 184.243 393.974 186.746C390.937 189.25 387.326 191.199 383.142 192.632C378.939 194.066 374.621 195.04 370.17 195.576C365.719 196.111 362.051 196.378 359.204 196.378C352.785 196.378 347.206 194.601 342.488 191.027C337.769 187.453 333.795 182.771 330.585 176.981C327.376 171.19 324.739 164.712 322.695 157.583C320.651 150.455 319.084 143.231 318.015 135.912C316.945 128.593 316.238 121.598 315.875 114.909C315.512 108.221 315.34 102.564 315.34 97.9199C315.34 93.276 315.435 88.1161 315.607 81.8669C315.779 75.6177 316.238 69.1201 316.945 62.3358C317.651 55.5515 318.779 48.7863 320.288 42.002C321.797 35.2177 323.994 29.1596 326.841 23.8086C329.687 18.4576 333.298 14.1386 337.673 10.8325C342.048 7.52633 347.34 5.88281 353.587 5.88281C362.146 5.88281 369.597 7.18234 375.921 9.76228C382.244 12.3422 387.116 17.9225 390.497 26.4841C391.204 28.2614 392.236 30.5356 393.573 33.3067C394.911 36.0777 396.477 38.7532 398.254 41.3331C400.031 43.9131 402.037 46.1108 404.272 47.8881C406.507 49.6654 408.857 50.5636 411.36 50.5636C413.862 50.5636 416.002 49.6272 417.779 47.7543C419.555 45.8815 421.16 43.7029 422.593 41.1994C424.026 38.6959 425.23 36.0777 426.204 33.3067C427.178 30.5356 428.038 28.2614 428.745 26.4841C431.954 18.6296 436.406 13.3742 442.118 10.6987C447.83 8.02321 454.689 6.68546 462.713 6.68546C465.75 6.68546 469.132 7.12501 472.876 8.02321C476.621 8.92141 480.232 10.2018 483.709 11.9027C487.186 13.6035 490.357 15.6102 493.204 17.9225C496.05 20.2349 498.286 22.7384 499.89 25.4139C501.495 28.4525 502.794 33.7462 503.769 41.3331C504.743 48.9201 505.507 57.0804 506.042 65.8139C506.577 74.5475 506.883 82.8989 506.978 90.8298C507.074 98.7608 507.112 104.609 507.112 108.354C507.112 109.788 507.074 112.463 506.978 116.381C506.883 120.299 506.806 124.847 506.711 130.026C506.615 135.205 506.481 140.632 506.31 146.346C506.138 152.06 505.908 157.411 505.641 162.399C505.373 167.387 505.068 171.725 504.705 175.376C504.342 179.026 503.902 181.3 503.367 182.198C501.935 185.046 499.661 187.415 496.547 189.288C493.433 191.161 489.994 192.632 486.25 193.703C482.505 194.773 478.761 195.48 475.016 195.843C471.272 196.206 467.89 196.378 464.853 196.378Z" fill="black"/>
<path d="M666.79 196.378C663.58 196.378 660.103 195.881 656.359 194.907C652.614 193.932 649.099 192.403 645.794 190.358C642.489 188.313 639.738 185.848 637.503 183.001C635.267 180.153 634.159 176.847 634.159 173.101C634.159 167.922 634.924 162.667 636.433 157.316C637.942 151.965 639.241 146.709 640.311 141.53C642.088 134.574 643.482 127.522 644.457 120.394C645.431 113.266 645.928 106.042 645.928 98.7226C645.928 97.4804 645.66 96.0088 645.125 94.308C644.59 92.6071 643.425 91.7663 641.648 91.7663C640.044 91.7663 638.706 92.8747 637.636 95.1106C636.567 97.3466 635.535 100.099 634.561 103.405C633.586 106.711 632.516 110.323 631.351 114.24C630.186 118.158 628.715 121.77 626.938 125.076C625.161 128.382 622.964 131.134 620.385 133.37C617.806 135.606 614.539 136.715 610.622 136.715C607.05 136.715 604.165 135.778 601.93 133.905C599.695 132.032 597.956 129.72 596.714 126.949C595.472 124.178 594.536 121.197 593.906 117.986C593.275 114.776 592.702 111.794 592.167 109.023C591.632 106.252 591.059 103.94 590.429 102.067C589.798 100.194 588.786 99.2577 587.353 99.2577C586.111 99.2577 585.118 99.7927 584.411 100.863C583.704 101.933 583.207 103.233 582.94 104.742C582.672 106.252 582.5 107.724 582.405 109.157C582.309 110.59 582.271 111.565 582.271 112.1C582.271 118.521 583.207 125.076 585.08 131.765C586.952 138.454 589.053 144.741 591.365 150.627C593.677 156.513 595.778 161.826 597.65 166.546C599.523 171.267 600.459 174.879 600.459 177.382C600.459 181.128 598.95 184.243 595.912 186.746C592.874 189.25 589.263 191.199 585.08 192.632C580.896 194.066 576.559 195.04 572.108 195.576C567.656 196.111 563.988 196.378 561.142 196.378C554.722 196.378 549.144 194.601 544.425 191.027C539.706 187.453 535.732 182.771 532.523 176.981C529.313 171.19 526.677 164.712 524.633 157.583C522.588 150.455 521.022 143.231 519.952 135.912C518.882 128.593 518.175 121.598 517.812 114.909C517.449 108.221 517.277 102.564 517.277 97.9199C517.277 93.276 517.373 88.1161 517.545 81.8669C517.717 75.6177 518.175 69.1201 518.882 62.3358C519.589 55.5515 520.716 48.7863 522.225 42.002C523.735 35.2177 525.932 29.1596 528.778 23.8086C531.625 18.4576 535.236 14.1386 539.611 10.8325C543.986 7.52633 549.278 5.88281 555.525 5.88281C564.084 5.88281 571.534 7.18234 577.858 9.76228C584.182 12.3422 589.053 17.9225 592.435 26.4841C593.142 28.2614 594.173 30.5356 595.511 33.3067C596.848 36.0777 598.415 38.7532 600.191 41.3331C601.968 43.9131 603.974 46.1108 606.209 47.8881C608.445 49.6654 610.794 50.5636 613.297 50.5636C615.8 50.5636 617.94 49.6272 619.716 47.7543C621.493 45.8815 623.098 43.7029 624.531 41.1994C625.963 38.6959 627.167 36.0777 628.141 33.3067C629.116 30.5356 629.975 28.2614 630.682 26.4841C633.892 18.6296 638.343 13.3742 644.056 10.6987C649.768 8.02321 656.626 6.68546 664.65 6.68546C667.688 6.68546 671.069 7.12501 674.814 8.02321C678.558 8.92141 682.169 10.2018 685.646 11.9027C689.123 13.6035 692.295 15.6102 695.141 17.9225C697.988 20.2349 700.223 22.7384 701.828 25.4139C703.433 28.4525 704.732 33.7462 705.706 41.3331C706.68 48.9201 707.445 57.0804 707.98 65.8139C708.514 74.5475 708.82 82.8989 708.916 90.8298C709.011 98.7608 709.049 104.609 709.049 108.354C709.049 109.788 709.011 112.463 708.916 116.381C708.82 120.299 708.744 124.847 708.648 130.026C708.553 135.205 708.419 140.632 708.247 146.346C708.075 152.06 707.846 157.411 707.578 162.399C707.311 167.387 707.005 171.725 706.642 175.376C706.279 179.026 705.84 181.3 705.305 182.198C703.872 185.046 701.599 187.415 698.485 189.288C695.37 191.161 691.932 192.632 688.187 193.703C684.443 194.773 680.698 195.48 676.954 195.843C673.209 196.206 669.828 196.378 666.79 196.378Z" fill="black"/>
<path d="M790.357 196.648C774.672 196.648 762.445 195.31 753.715 192.635C744.984 189.959 738.507 185.545 734.323 179.391C730.139 173.237 727.599 165.115 726.701 155.044C725.803 144.973 725.363 132.608 725.363 117.988C725.363 103.369 726.166 89.1886 727.77 75.9831C729.375 62.7776 732.317 51.2347 736.597 41.3354C740.876 31.4361 746.894 23.5434 754.651 17.6573C762.407 11.7712 772.437 8.82812 784.74 8.82812C790.797 8.82812 797.712 9.05745 805.469 9.497C813.225 9.93654 820.485 11.3316 827.267 13.644C834.049 15.9564 839.8 19.4346 844.519 24.0785C849.238 28.7224 851.607 35.22 851.607 43.6096C851.607 45.75 851.473 48.3873 851.205 51.5023C850.938 54.6173 850.307 57.6559 849.333 60.599C848.359 63.542 846.926 66.0838 845.054 68.2242C843.181 70.3646 840.736 71.4348 837.698 71.4348C835.024 71.4348 831.986 70.7659 828.605 69.4281C825.223 68.0904 821.555 66.5806 817.639 64.8798C813.722 63.1789 809.787 61.6692 805.87 60.3314C801.954 58.9937 798.114 58.3248 794.369 58.3248C789.727 58.3248 786.574 59.0319 784.874 60.4652C783.174 61.8985 782.333 65.0136 782.333 69.8295C782.333 74.2822 783.441 77.0533 785.677 78.1235C787.912 79.1937 790.988 79.7288 794.904 79.7288C798.82 79.7288 803.024 79.1937 806.94 78.1235C810.856 77.0533 814.868 76.5182 818.976 76.5182C821.651 76.5182 824.058 77.2253 826.197 78.6586C828.337 80.0919 830.114 81.9074 831.547 84.1434C832.98 86.3793 834.088 88.7873 834.89 91.3672C835.692 93.9471 836.094 96.4124 836.094 98.7248C836.094 100.693 835.731 103.006 835.024 105.681C834.317 108.357 833.285 110.937 831.948 113.44C830.611 115.944 828.968 118.084 827 119.861C825.032 121.639 822.892 122.537 820.581 122.537C816.473 122.537 812.385 121.906 808.277 120.664C804.17 119.422 800.081 118.791 795.974 118.791C792.229 118.791 789.517 119.192 787.816 119.995C786.116 120.798 785.275 123.244 785.275 127.353C785.275 134.481 786.976 139.087 790.357 141.131C793.739 143.176 798.744 144.208 805.335 144.208C808.908 144.208 812.461 143.845 816.034 143.138C819.606 142.431 823.16 141.667 826.732 140.864C830.305 140.061 833.82 139.354 837.297 138.723C840.774 138.093 844.289 137.787 847.862 137.787C850.365 137.787 852.447 138.628 854.147 140.329C855.848 142.03 857.223 144.113 858.293 146.616C859.363 149.12 860.165 151.7 860.7 154.375C861.235 157.051 861.503 159.363 861.503 161.331C861.503 168.288 858.79 174.04 853.345 178.588C847.9 183.137 841.405 186.749 833.82 189.424C826.236 192.1 818.403 193.972 810.283 195.043C802.164 196.113 795.535 196.648 790.357 196.648Z" fill="black"/>
<path d="M988.799 195.847C980.775 195.847 974.394 194.643 969.675 192.235C964.956 189.827 961.383 186.712 958.976 182.871C956.569 179.03 955.003 174.672 954.296 169.761C953.589 164.85 953.092 159.862 952.825 154.778C952.557 149.695 952.252 144.783 951.889 140.063C951.526 135.343 950.551 131.196 948.946 127.622C948.411 126.552 947.514 125.711 946.272 125.08C945.03 124.449 943.693 124.144 942.26 124.144C940.12 124.144 938.783 125.176 938.248 127.221C937.713 129.265 937.445 131.1 937.445 132.705C937.445 137.521 937.942 141.764 938.916 145.414C939.891 149.064 940.961 152.466 942.126 155.581C943.291 158.696 944.361 161.734 945.336 164.677C946.31 167.621 946.807 170.869 946.807 174.443C946.807 178.189 945.565 181.438 943.062 184.209C940.559 186.98 937.579 189.254 934.102 191.031C930.625 192.808 926.976 194.146 923.136 195.044C919.296 195.943 915.953 196.382 913.106 196.382C907.222 196.382 901.605 194.949 896.256 192.101C890.907 189.254 886.188 184.744 882.08 178.59C877.973 172.436 874.725 164.506 872.318 154.778C869.911 145.051 868.707 133.24 868.707 119.328C868.707 110.059 868.803 100.829 868.975 91.6364C869.146 82.4442 869.739 73.7106 870.713 65.4166C871.687 57.1225 873.292 49.3636 875.527 42.1398C877.763 34.9159 880.915 28.6667 885.022 23.4113C889.13 18.1558 894.345 14.0088 900.669 10.9702C906.993 7.93162 914.806 6.42188 924.072 6.42188C930.663 6.42188 937.713 6.6512 945.202 7.09075C952.691 7.5303 960.142 8.4285 967.535 9.76625C974.929 11.104 982.074 12.9386 988.932 15.251C995.791 17.5634 1001.9 20.602 1007.25 24.3477C1012.6 28.0934 1016.84 32.5462 1019.96 37.7252C1023.07 42.9042 1024.64 49.0578 1024.64 56.1861C1024.64 64.0406 1023.53 70.8631 1021.3 76.6537C1019.06 82.4442 1016.21 87.4894 1012.74 91.7702C1009.26 96.051 1005.38 99.5674 1001.1 102.338C996.823 105.109 992.715 107.46 988.799 109.428C991.301 111.569 993.613 114.015 995.753 116.786C997.892 119.557 999.669 122.443 1001.1 125.481C1003.07 129.399 1004.88 132.801 1006.59 135.648C1008.29 138.496 1010.06 141.171 1011.93 143.675C1013.81 146.178 1015.77 148.758 1017.82 151.434C1019.86 154.109 1022.14 157.224 1024.64 160.798C1026.24 162.938 1027.62 165.117 1028.78 167.353C1029.95 169.589 1030.52 172.131 1030.52 174.978C1030.52 178.896 1028.96 182.202 1025.84 184.877C1022.73 187.553 1018.98 189.693 1014.61 191.299C1010.23 192.904 1005.65 194.07 1000.83 194.777C996.02 195.484 992.008 195.847 988.799 195.847ZM944.399 85.6166C948.507 85.6166 951.793 84.4126 954.296 82.0047C956.798 79.5967 958.04 75.9848 958.04 71.1689C958.04 66.8881 956.741 63.8495 954.162 62.0722C951.583 60.2949 948.679 59.3967 945.469 59.3967C941.19 59.3967 937.484 60.3331 934.37 62.206C931.256 64.0788 929.689 67.5952 929.689 72.7742C929.689 77.055 931.122 80.2656 933.968 82.406C936.815 84.5464 940.292 85.6166 944.399 85.6166Z" fill="black"/>
<path d="M1077.6 196.384C1065.66 196.384 1056.6 193.04 1050.45 186.351C1044.3 179.663 1040.51 170.337 1039.08 158.392C1036.58 136.453 1035.64 114.782 1036.27 93.3778C1036.9 71.9738 1038.72 50.4743 1041.76 28.8983C1042.29 25.1526 1043.86 21.9802 1046.44 19.4003C1049.02 16.8204 1052.05 14.8137 1055.53 13.3804C1059.01 11.9471 1062.58 10.9343 1066.23 10.3036C1069.88 9.67296 1073.14 9.36719 1075.99 9.36719C1082.77 9.36719 1088.87 10.9725 1094.31 14.1831C1099.76 17.3937 1103.18 23.1842 1104.61 31.5738C1106.21 40.8425 1107.55 51.4107 1108.62 63.2785C1109.69 75.1462 1110.63 87.2624 1111.43 99.6652C1112.23 112.068 1112.81 124.28 1113.17 136.32C1113.53 148.359 1113.7 159.195 1113.7 168.827C1113.7 173.643 1112.54 177.79 1110.23 181.268C1107.91 184.746 1105.01 187.593 1101.53 189.829C1098.06 192.065 1094.18 193.709 1089.9 194.779C1085.62 195.849 1081.51 196.384 1077.6 196.384Z" fill="black"/>
<path d="M1258.67 201.997C1252.96 201.997 1247.7 201.729 1242.89 201.194C1238.07 200.659 1233.89 199.359 1230.32 197.315C1226.75 195.27 1223.99 192.327 1222.03 188.485C1220.06 184.644 1219.08 179.523 1219.08 173.101C1219.08 168.993 1219.22 164.846 1219.49 160.66C1219.75 156.475 1219.89 152.328 1219.89 148.219C1219.89 145.544 1218.91 141.894 1216.95 137.25C1214.98 132.606 1212.57 128.019 1209.72 123.471C1206.88 118.923 1203.97 115.005 1201.03 111.699C1198.09 108.393 1195.55 106.749 1193.41 106.749C1192.17 106.749 1191.44 107.647 1191.27 109.425C1191.1 111.202 1191 112.54 1191 113.438C1191 119.324 1191.31 124.503 1191.94 128.956C1192.57 133.408 1193.45 137.651 1194.61 141.664C1195.78 145.678 1197.15 149.729 1198.76 153.838C1200.36 157.947 1202.14 162.667 1204.11 168.018C1204.64 169.451 1205.18 170.961 1205.71 172.566C1206.25 174.172 1206.51 175.777 1206.51 177.382C1206.51 181.128 1205 184.243 1201.97 186.746C1198.93 189.25 1195.32 191.199 1191.13 192.632C1186.95 194.066 1182.61 195.04 1178.16 195.576C1173.71 196.111 1170.04 196.378 1167.2 196.378C1164.35 196.378 1161.27 196.206 1157.97 195.843C1154.66 195.48 1151.51 194.811 1148.47 193.836C1145.44 192.862 1142.69 191.429 1140.18 189.556C1137.68 187.683 1135.73 185.313 1134.3 182.466C1131.99 177.478 1130.15 170.598 1128.82 161.864C1127.48 153.131 1126.54 143.843 1126.01 134.039C1125.47 124.235 1125.17 114.68 1125.07 105.411C1124.98 96.1426 1124.94 88.4601 1124.94 82.402V53.3729C1124.94 43.3015 1126.18 33.708 1128.68 24.6113C1129.58 21.4007 1131.45 18.8208 1134.3 16.8523C1137.15 14.8839 1140.45 13.336 1144.19 12.1702C1147.94 11.0045 1151.78 10.2592 1155.7 9.89606C1159.61 9.53295 1162.92 9.36096 1165.59 9.36096C1171.48 9.36096 1177 10.3929 1182.17 12.4378C1187.35 14.4826 1191.44 18.2857 1194.48 23.8086C1195.38 25.4139 1196.58 27.9557 1198.09 31.4338C1199.6 34.912 1201.3 38.8296 1203.17 43.206C1205.04 47.5823 1207.05 52.0734 1209.19 56.7173C1211.33 61.3612 1213.51 65.5846 1215.74 69.4259C1217.98 73.2671 1220.12 76.4204 1222.16 78.9239C1224.2 81.4274 1226.04 82.6696 1227.64 82.6696C1228.18 82.6696 1228.58 82.2683 1228.85 81.4656C1229.11 80.663 1229.29 79.7647 1229.38 78.7901C1229.48 77.8155 1229.52 76.8217 1229.52 75.8471V74.108C1229.52 70.1903 1228.94 66.2535 1227.78 62.3358C1226.61 58.4181 1225.27 54.4813 1223.77 50.5636C1222.26 46.6459 1220.92 42.7091 1219.75 38.7914C1218.59 34.8737 1218.02 30.9369 1218.02 27.0192C1218.02 23.6366 1218.91 20.6363 1220.69 18.0563C1222.47 15.4764 1224.74 13.2787 1227.51 11.5014C1230.28 9.72406 1233.26 8.32898 1236.47 7.35434C1239.68 6.37969 1242.72 5.88281 1245.56 5.88281C1248.07 5.88281 1251.09 6.15036 1254.66 6.68546C1258.23 7.22056 1261.75 8.06143 1265.22 9.22718C1268.7 10.3929 1271.87 11.8071 1274.72 13.508C1277.56 15.2088 1279.63 17.2919 1280.87 19.7954C1282.84 23.7131 1284.52 28.7201 1285.95 34.7782C1287.38 40.8363 1288.63 47.4868 1289.7 54.7106C1290.77 61.9345 1291.66 69.5214 1292.37 77.4523C1293.08 85.3833 1293.67 93.0658 1294.11 100.462C1294.55 107.857 1294.87 114.776 1295.04 121.197C1295.22 127.618 1295.31 133.064 1295.31 137.517C1295.31 139.658 1295.27 142.868 1295.18 147.149C1295.08 151.43 1295.01 155.883 1294.91 160.527C1294.82 165.17 1294.64 169.489 1294.38 173.503C1294.11 177.516 1293.71 180.325 1293.17 181.93C1292.27 184.778 1290.5 187.415 1287.82 189.823C1285.15 192.231 1282.11 194.333 1278.73 196.111C1275.35 197.888 1271.81 199.321 1268.16 200.391C1264.52 201.462 1261.34 201.997 1258.67 201.997Z" fill="black"/>
<path d="M1395.08 196.652C1383.31 196.652 1371.85 195.276 1360.71 192.505C1349.57 189.734 1339.67 185.147 1331.02 178.726C1322.37 172.305 1315.37 163.839 1310.02 153.309C1304.67 142.779 1302 129.765 1302 114.247C1302 100.506 1304.37 87.3197 1309.09 74.6493C1313.81 61.9789 1320.68 50.8374 1329.68 41.2056C1338.68 31.5738 1349.65 23.8531 1362.58 18.0626C1375.51 12.272 1390.26 9.36719 1406.85 9.36719C1410.76 9.36719 1415.1 9.76851 1419.82 10.5712C1424.54 11.3738 1428.95 12.7498 1433.06 14.7182C1437.17 16.6866 1440.58 19.3621 1443.35 22.7447C1446.13 26.1273 1447.5 30.5036 1447.5 35.8546C1447.5 38.3581 1447.06 41.6069 1446.16 45.6202C1445.27 49.6334 1443.99 53.5129 1442.29 57.2586C1440.58 61.0043 1438.58 64.2531 1436.27 67.0241C1433.96 69.7952 1431.36 71.1712 1428.51 71.1712C1426.73 71.1712 1424.46 70.6743 1421.69 69.6996C1418.92 68.725 1416.04 67.693 1413 66.6228C1409.96 65.5526 1406.85 64.5206 1403.64 63.546C1400.43 62.5714 1397.39 62.0745 1394.54 62.0745C1388.66 62.0745 1383.67 63.5078 1379.56 66.3553C1375.46 69.2028 1372.11 72.8147 1369.53 77.191C1366.96 81.5674 1365.08 86.3833 1363.92 91.6387C1362.75 96.8942 1362.18 102.035 1362.18 107.023C1362.18 110.941 1362.89 115.145 1364.32 119.598C1365.75 124.05 1367.8 128.159 1370.47 131.905C1373.15 135.651 1376.49 138.766 1380.5 141.269C1384.51 143.773 1389.1 145.015 1394.28 145.015C1397.31 145.015 1399.93 144.384 1402.17 143.142C1404.4 141.9 1406.31 140.333 1407.92 138.46C1409.52 136.587 1410.72 134.485 1411.53 132.172C1412.33 129.86 1412.73 127.72 1412.73 125.751C1412.73 121.643 1411.43 119.158 1408.85 118.26C1406.27 117.362 1402.66 116.922 1398.02 116.922C1395.71 116.922 1393.43 116.788 1391.2 116.521C1388.96 116.253 1386.96 115.451 1385.18 114.113C1383.4 112.775 1381.93 110.807 1380.77 108.227C1379.6 105.647 1379.03 102.035 1379.03 97.391C1379.03 92.7471 1379.66 89.1925 1380.9 86.689C1382.14 84.1855 1383.88 82.2745 1386.12 80.9367C1388.35 79.599 1391.03 78.7963 1394.14 78.5288C1397.26 78.2612 1400.69 78.1275 1404.44 78.1275C1415.31 78.1275 1424.27 79.0257 1431.32 80.8029C1438.37 82.5802 1443.93 85.3895 1448.04 89.2308C1452.14 93.072 1454.99 98.0217 1456.59 104.08C1458.2 110.138 1459 117.553 1459 126.286C1459 136.816 1457.7 146.391 1455.12 155.048C1452.54 163.705 1448.61 171.101 1443.35 177.255C1438.1 183.408 1431.45 188.186 1423.43 191.569C1415.4 194.951 1405.95 196.652 1395.08 196.652Z" fill="black"/>
</g>
<defs>
<clipPath id="clip0_4702_35516">
<rect width="1459" height="202" fill="white"/>
</clipPath>
</defs>
</svg>
