<svg width="1080" height="1080" viewBox="0 0 1080 1080" fill="none" xmlns="http://www.w3.org/2000/svg">
<g clip-path="url(#clip0_4702_35468)">
<path d="M1080 540C1080 241.766 838.234 0 540 0C241.766 0 0 241.766 0 540C0 838.234 241.766 1080 540 1080C838.234 1080 1080 838.234 1080 540Z" fill="black"/>
<path d="M120.79 530.141C113.99 530.581 105.87 528.811 97.7096 526.051C89.5496 523.291 82.1296 518.651 75.5496 512.691C69.0496 506.801 63.1196 497.421 60.2496 489.191C56.3696 478.061 56.2696 465.621 58.2696 454.051C59.2196 448.511 60.9596 440.781 63.6696 431.061C66.3696 421.371 69.9596 411.491 73.8496 402.281C77.4696 393.721 82.0396 384.831 87.1496 377.011C91.9496 369.661 96.5196 365.281 100.79 364.111C102.92 363.521 105.13 364.151 107.45 366.081C109.77 368.011 112.21 370.311 114.76 372.991C117.32 375.671 120.21 378.061 123.39 380.111C126.57 382.161 129.96 382.891 133.49 382.191C139.5 381.001 144.84 378.131 149.47 373.491C154.1 368.851 157.69 360.511 160.6 348.741C164.09 334.621 166.65 320.211 168.64 305.861C170.48 292.591 172.45 279.091 174.96 266.081C177.18 254.571 180.16 243.171 183.64 231.861C186.62 222.171 191.43 212.111 196.66 203.441C201.44 195.511 206.82 188.211 212.64 181.531C218.45 174.861 224.07 168.981 229.48 163.891C234.89 158.801 239.97 154.421 244.78 150.801C249.59 147.181 253.59 144.401 256.82 142.441C263.58 138.331 267.45 138.541 268.87 143.441C270.29 148.341 270.19 156.361 268.75 167.661C266.97 181.641 264.39 195.561 261.77 209.411C258.51 226.661 255.29 243.971 252.18 261.261C249.01 278.881 245.98 296.581 243.02 314.221C240.56 328.941 238.33 343.861 236 358.511C232.28 381.881 226.82 404.961 218.83 427.181C211.99 446.201 202.77 465.391 191.42 482.181C182.34 495.621 170.66 509.361 157.44 517.681C145.29 525.331 134.98 529.241 120.81 530.151L120.79 530.141Z" fill="white"/>
<path d="M285.999 525.988C269.939 526.448 255.839 515.108 247.879 502.028C235.859 482.268 234.989 458.188 236.509 436.058C237.749 417.938 241.149 399.348 244.549 381.248C249.379 355.518 256.089 329.878 263.689 304.938C272.109 277.308 282.129 249.708 293.139 223.018C303.579 197.688 315.429 172.448 328.779 148.468C339.579 129.068 351.229 109.308 364.939 92.2376C373.709 81.3176 383.959 69.7976 397.489 64.7676C406.609 61.3776 417.969 68.8476 421.579 76.8776C428.239 91.6576 433.669 108.868 437.219 125.428C442.449 149.808 445.779 175.058 448.689 199.918C452.039 228.598 454.879 257.628 457.089 286.458C459.179 313.768 461.009 341.268 462.139 368.678C462.939 388.098 463.829 407.608 463.539 427.078C463.339 440.798 462.109 454.918 458.619 467.908C455.789 478.438 452.299 489.238 446.499 498.828C441.429 507.198 435.439 513.778 428.499 518.368C421.549 522.968 414.059 525.268 406.029 525.298C401.359 525.318 396.449 524.368 391.319 522.498C386.179 520.628 381.509 517.448 377.329 512.988C373.149 508.538 369.699 502.688 367.019 495.478C364.339 488.268 363.119 479.548 363.389 469.348C363.579 462.398 363.929 454.878 364.469 446.818C364.999 438.768 365.059 431.218 364.619 424.168C364.179 417.138 362.839 411.308 360.599 406.698C358.359 402.088 354.399 399.958 348.719 400.288C341.059 400.738 335.829 405.688 332.919 414.938C329.689 425.208 328.439 435.998 327.779 446.528C327.469 451.418 327.489 456.278 327.569 460.818C327.649 465.358 327.609 470.158 327.449 475.188C327.159 484.798 325.659 492.898 322.919 499.388C320.169 505.888 316.729 511.128 312.579 515.088C308.429 519.048 303.999 521.858 299.299 523.498C294.589 525.138 290.069 525.888 285.989 526.008L285.999 525.988ZM352.659 329.638C357.449 329.188 361.039 325.748 363.409 319.298C365.779 312.868 367.309 305.978 368.029 298.698C368.279 296.128 368.669 290.468 369.249 281.818C369.829 273.168 370.189 264.408 370.349 255.568C370.509 246.738 370.349 238.958 369.819 232.218C369.299 225.488 367.959 222.328 365.739 222.678C363.509 223.028 361.089 226.858 358.489 234.208C355.879 241.568 353.469 249.928 351.299 259.338C349.129 268.748 347.339 277.798 345.929 286.438C344.529 295.088 343.689 300.938 343.349 303.898C342.529 311.108 342.739 317.308 343.969 322.488C345.199 327.668 348.109 330.068 352.659 329.638Z" fill="white"/>
<path d="M694.47 522.529C689.84 522.499 684.81 521.169 679.37 518.519C673.93 515.869 668.77 511.769 663.92 506.239C659.07 500.719 654.96 494.109 651.61 486.469C648.26 478.829 646.51 470.009 646.34 460.089C646.1 446.259 647 432.359 648.72 418.689C650.42 405.229 651.73 391.619 652.94 378.089C654.52 360.439 655.91 342.539 656.27 324.959C656.63 307.399 656.08 289.469 654.92 271.839C654.72 268.839 654.09 265.249 653.07 261.109C652.05 256.979 650.35 254.829 647.97 254.639C645.83 254.469 644.23 257.009 643.15 262.289C642.07 267.579 641.1 274.189 640.24 282.179C639.37 290.169 638.39 298.989 637.26 308.649C636.13 318.319 634.48 327.279 632.31 335.489C630.13 343.709 627.28 350.619 623.78 356.189C620.27 361.759 615.68 364.479 610.04 364.329C604.9 364.189 600.67 361.689 597.35 356.809C594.03 351.929 591.41 345.949 589.47 338.869C587.54 331.799 586.04 324.179 584.98 316.079C583.92 307.969 582.94 300.479 582.03 293.569C581.12 286.669 580.18 280.909 579.2 276.269C578.22 271.629 576.75 269.289 574.77 269.249C573.03 269.209 571.69 270.499 570.75 273.119C569.8 275.739 569.17 278.929 568.86 282.669C568.55 286.429 568.35 290.089 568.28 293.639C568.21 297.199 568.17 299.669 568.2 300.989C568.61 317.659 570.21 334.479 572.91 350.889C575.59 367.129 579.01 383.679 582.7 399.879C585.89 413.859 589.39 428.029 592.45 441.949C594.51 451.329 596.75 461.159 596.88 470.889C597.01 480.869 594.75 489.319 590.26 496.039C585.76 502.769 580.37 508.079 574.09 511.939C567.8 515.809 561.29 518.469 554.57 519.929C547.84 521.389 542.2 522.019 537.98 522.109C528.69 522.309 517.69 514.919 512.76 507.559C505.11 496.139 499.35 482.979 495.08 469.719C489.78 453.249 486.38 435.549 483.9 418.299C481.22 399.709 479.23 380.769 478.1 362.069C477.04 344.479 476.51 326.539 476.5 308.879C476.5 294.949 476.7 280.849 477.23 266.859C477.73 253.919 478.38 240.929 479.2 228.039C480.18 212.709 481.46 197.239 483.14 182.029C484.85 166.569 487.03 150.809 489.79 135.589C492.24 122.069 495.21 108.089 499.82 95.2491C503.31 85.5391 507.33 75.5591 513.66 67.0291C518.93 59.9291 524.98 56.2691 532.08 56.1691C541.81 56.0291 550.64 58.7991 557.69 64.4591C567.87 72.6391 573.02 88.1391 576.01 100.769C577.03 104.679 578.49 109.689 580.39 115.839C582.3 121.999 584.5 128.029 586.99 133.909C589.48 139.799 592.25 144.869 595.25 149.059C598.26 153.259 601.35 155.479 604.48 155.709C607.6 155.939 610.14 154.029 612.04 150.019C613.93 146.009 615.52 141.309 616.79 135.949C618.06 130.599 618.98 124.969 619.58 119.089C620.17 113.209 620.68 108.429 621.11 104.709C622.84 94.1491 623.92 80.9691 632.31 73.7391C637.51 69.2591 644.81 67.9791 653.41 69.8391C656.66 70.5391 660.44 72.2491 664.78 74.9891C669.13 77.7291 673.51 81.2691 677.95 85.6091C682.4 89.9591 686.68 94.8791 690.81 100.369C694.93 105.859 698.69 111.639 701.49 117.519C706.58 128.189 709.74 140.249 712.92 151.759C717.77 169.349 721.92 187.469 725.6 205.369C729.45 224.109 732.79 243.209 735.62 262.179C737.65 275.779 739.45 289.509 741.07 303.199C741.47 306.579 742.15 312.919 743.04 322.299C744.08 333.279 745.03 344.279 745.93 355.259C747.02 368.609 747.88 382.019 748.58 395.409C749.28 408.799 749.81 422.249 750.04 435.629C750.23 446.589 750.33 457.619 750.1 468.619C749.91 477.979 749.43 483.829 748.74 486.109C746.92 493.429 743.84 499.499 739.51 504.309C735.18 509.129 730.36 512.929 725.06 515.699C719.76 518.469 714.42 520.309 709.07 521.219C703.72 522.129 698.84 522.579 694.47 522.549V522.529Z" fill="white"/>
<path d="M964.69 525.447C960.78 525.377 956.51 524.217 951.85 521.927C947.19 519.637 942.74 516.107 938.48 511.327C934.22 506.557 930.53 500.837 927.4 494.207C924.27 487.587 922.32 479.887 921.76 471.487C920.97 459.807 920.85 448.137 921.11 436.337C921.36 425.017 921.38 413.497 920.95 402.327C920.4 387.807 919.34 372.817 917.1 358.227C914.81 343.287 911.33 328.567 907.22 314.157C906.51 311.667 905.3 308.617 903.66 305.047C902.02 301.487 900.19 299.417 898.18 298.837C896.38 298.317 895.56 300.117 895.66 304.297C895.76 308.487 896.18 313.807 896.84 320.337C897.5 326.867 898.13 334.107 898.66 342.077C899.19 350.057 899.06 357.417 898.31 364.137C897.56 370.867 895.97 376.447 893.63 380.847C891.29 385.257 887.63 387.157 882.76 386.467C878.32 385.837 874.38 383.237 870.95 378.637C867.52 374.027 864.53 368.497 861.96 362.057C859.39 355.627 857.09 348.757 855.03 341.497C852.97 334.237 851 327.517 849.13 321.317C847.27 315.127 845.51 309.927 843.89 305.697C842.27 301.467 840.59 299.177 838.87 298.817C837.36 298.497 836.42 299.417 836.05 301.587C835.68 303.757 835.65 306.477 835.99 309.747C836.32 313.027 836.74 316.247 837.22 319.387C837.71 322.537 838.05 324.707 838.27 325.907C841.04 341.097 844.79 356.117 849.02 370.847C853.27 385.607 857.84 400.507 862.54 415.247C866.56 427.817 870.43 440.447 874.12 453.117C877.41 464.387 879.14 472.967 879.47 478.877C879.96 487.737 878.31 495.087 874.56 500.937C870.81 506.807 866.18 511.447 860.73 514.817C855.27 518.197 849.56 520.527 843.63 521.777C837.69 523.027 832.78 523.637 828.94 523.597C820.29 523.507 812.62 518.947 806.06 509.827C798.2 498.897 793.17 486.467 788.76 473.977C783.19 458.197 779.14 441.457 775.49 424.927C771.56 407.097 768.09 389.117 765.04 371.147C762.18 354.277 759.46 337.307 756.93 320.367C754.95 307.077 752.96 293.747 751.08 280.437C749.35 268.217 747.63 255.977 745.81 243.767C743.68 229.437 741.65 215.077 739.66 200.727C737.69 186.587 735.79 172.317 734.27 158.227C733.02 146.647 731.92 134.867 732.04 123.127C732.14 113.417 733.33 106.297 735.71 101.647C738.09 96.9972 742.23 96.1072 748.33 98.6972C757.08 102.407 766.14 108.977 772.89 115.607C783.94 126.467 792.08 139.717 799.92 153.007C801.98 156.657 804.72 161.367 808.13 167.167C811.54 172.967 815.11 178.727 818.84 184.407C822.57 190.097 826.26 195.127 829.89 199.467C833.52 203.807 836.67 206.477 839.31 207.497C841.94 208.517 843.52 207.597 843.95 204.817C844.39 202.037 844.35 198.637 843.8 194.657C843.26 190.677 842.3 186.427 840.95 181.907C839.59 177.387 838.44 173.757 837.57 170.967C833.78 158.707 832.83 152.277 835.28 151.087C837.73 149.897 842.25 151.837 849.06 156.747C851.63 158.607 854.97 161.407 859.09 165.117C863.22 168.837 867.68 173.097 872.49 177.877C877.31 182.657 882.23 187.707 887.25 193.017C892.27 198.327 897.03 203.527 901.33 208.617C908.64 217.257 915.5 226.507 921.91 235.837C931.13 249.267 940.05 263.207 948.01 277.277C956 291.387 963.4 306.247 970.04 321.147C974.66 331.507 978.87 342.227 982.73 352.967C983.68 355.597 985.4 360.517 987.69 367.827C989.99 375.137 992.51 383.717 995.12 393.567C997.87 403.947 1000.26 414.577 1002.28 425.097C1004.29 435.537 1005.98 446.247 1007.22 456.837C1008.38 466.807 1009.07 475.557 1009.41 482.977C1009.75 490.407 1009.57 495.057 1009.09 496.857C1007.88 502.637 1005.51 507.417 1002.05 511.197C998.58 514.987 994.65 517.987 990.27 520.167C985.9 522.347 981.45 523.807 976.97 524.497C972.49 525.187 968.38 525.517 964.69 525.457V525.447Z" fill="white"/>
<path d="M234.31 926.752C222 917.882 210.48 907.762 199.43 897.342C188.53 887.052 178.06 876.282 167.92 865.272C155.81 852.132 144.39 838.242 133.92 823.932C119.96 804.852 107.43 784.102 96.9101 763.152C85.2101 739.852 75.44 714.842 69.34 689.652C64.33 669.002 61.61 647.062 63.61 625.392C65.08 609.432 69.72 592.412 79.02 579.192C86.99 567.862 100.11 561.182 114.03 561.622C121.35 561.852 129.98 562.632 139.55 563.762C148.73 564.842 159.6 569.082 167.25 574.072C176.99 580.422 184.56 589.922 190.45 599.362C198.78 612.702 201.32 629.702 203.08 645.572C203.62 650.462 204.02 656.612 204.51 663.732C205 670.872 205.08 677.702 204.76 684.212C204.44 690.722 203.5 696.202 201.93 700.642C200.35 705.082 197.73 706.972 194 706.382C190.71 705.862 186.73 703.792 182.09 700.202C177.44 696.622 172.41 692.612 167.02 688.202C161.63 683.792 156.31 679.792 151.1 676.212C145.89 672.622 141.05 670.522 136.58 669.842C131.05 669.002 127.58 669.912 126.15 672.552C124.71 675.202 124.96 681.492 127.13 691.352C129.14 700.482 131.82 706.322 134.92 709.062C138.02 711.792 141.83 713.662 146.38 714.632C151.14 715.642 155.58 715.522 159.72 714.192C163.85 712.862 168.4 712.622 173.32 713.532C176.53 714.122 179.73 716.182 182.92 719.722C186.12 723.272 189.06 727.612 191.78 732.732C194.5 737.852 196.94 743.292 199.14 749.012C201.33 754.732 203.02 760.052 204.2 764.942C205.2 769.092 205.99 773.872 206.61 779.242C207.23 784.612 207.51 789.662 207.44 794.352C207.37 799.052 206.81 802.862 205.72 805.782C204.63 808.712 202.83 809.732 200.27 808.922C195.72 807.482 190.8 804.772 185.46 800.862C180.12 796.952 175.2 794.272 170.75 792.772C166.69 791.402 164.04 791.162 162.8 792.042C161.56 792.922 162.46 797.252 165.56 804.862C169.52 814.592 174.44 824.782 181.73 832.372C186.75 837.602 192.78 841.712 199.59 844.562C203.27 846.102 206.7 846.952 209.9 847.092C213.1 847.222 216.32 847.222 219.56 847.092C222.79 846.952 226.11 846.922 229.46 847.002C232.82 847.082 236.48 847.752 240.42 849.042C243.17 849.942 246.05 852.392 249 856.392C251.96 860.402 254.83 865.102 257.64 870.462C260.45 875.832 263.03 881.242 265.41 886.702C267.79 892.162 269.81 896.842 271.05 900.572C273.9 909.152 278.1 920.372 275.52 929.612C273.91 935.362 270.52 938.722 265.86 939.432C261.2 940.142 255.93 938.952 249.86 936.042C243.79 933.132 238.69 929.942 234.31 926.792V926.752Z" fill="white"/>
<path d="M425.5 1010.97C416.93 1009.09 409.73 1004.99 403.67 998.887C397.61 992.787 392.42 985.457 388.07 977.057C383.53 968.287 379.74 958.267 377.11 948.787C374.19 938.267 371.42 927.427 369.1 916.687C366.79 905.947 364.39 895.127 362.2 884.407C360.26 874.947 357.6 865.057 354.02 856.017C352.98 853.497 351.56 851.397 349.79 849.727C348.02 848.057 346.24 847.077 344.47 846.777C341.81 846.327 340.54 848.357 340.66 852.817C340.79 857.287 341.2 861.297 341.82 864.837C343.46 874.217 345.79 883.967 348.83 893.017C351.56 901.147 354.28 908.727 357 915.667C359.72 922.617 362.3 929.307 364.74 935.737C367.18 942.167 369.21 949.077 370.89 956.397C372.65 964.087 372.84 970.317 371.57 975.067C370.29 979.827 368.35 983.347 365.73 985.637C363.11 987.937 360.15 989.217 356.81 989.517C353.47 989.807 350.41 989.367 347.57 988.247C341.71 985.947 335.21 980.977 328.01 973.417C318.95 963.907 311.52 952.997 304.44 942.037C294.25 926.257 285.88 908.967 278.23 891.837C267.63 868.097 259.67 842.847 253.37 817.717C248.44 798.017 244.15 777.657 240.65 757.637C237.25 738.207 234.67 718.207 233.39 698.607C232.23 680.867 231.92 662.387 233.79 644.667C235.38 629.587 237.99 614.597 243.49 600.187C247.84 588.807 254.43 578.087 263.57 569.977C272.29 562.237 283.94 558.747 295.44 558.887C305.14 559.007 315.26 559.767 324.88 560.897C335.32 562.127 346.71 564.557 356.51 568.217C367.4 572.277 377.9 576.977 387.32 583.057C397.67 589.737 406.13 597.847 414.18 607.537C422.61 617.677 428.94 630.437 433.34 643.167C438.63 658.507 441.1 675.157 441.4 691.417C441.72 708.827 441.47 726.217 438.62 743.427C436.54 755.997 433.27 768.617 428.69 780.437C425.45 788.797 420.53 798.147 414.66 805.077C409.43 811.247 404.48 816.447 399.75 820.587C403.52 825.997 407.11 832.127 410.52 838.917C413.93 845.727 416.86 852.817 419.41 860.007C422.74 869.377 425.92 877.497 428.71 884.277C431.5 891.057 434.35 897.417 437.24 903.337C440.14 909.267 443.14 915.357 446.25 921.637C449.35 927.907 452.8 935.177 456.55 943.367C458.93 948.297 461.03 953.277 462.86 958.287C464.69 963.297 465.86 968.897 466.43 975.027C467.21 983.467 466.06 990.257 463.12 995.427C460.18 1000.6 456.51 1004.45 452.11 1006.99C447.71 1009.53 443.05 1011.02 438.07 1011.47C433.09 1011.92 428.92 1011.72 425.49 1010.97H425.5ZM335.19 757.527C340.62 758.117 344.7 755.687 347.49 750.187C350.27 744.687 351.17 736.037 350.21 724.187C349.36 713.657 347.05 705.987 343.19 701.307C339.33 696.637 335.2 694.137 330.82 693.817C324.98 693.387 320.12 695.327 316.3 699.557C312.47 703.797 311.14 712.187 312.41 724.647C313.46 734.957 316.22 742.807 320.56 748.337C324.89 753.857 329.76 756.937 335.2 757.527H335.19Z" fill="white"/>
<path d="M523.439 1024.19C509.389 1024.06 497.859 1013.1 491.499 1001.47C481.149 982.527 476.719 960.667 473.739 939.687C466.599 889.397 462.739 837.357 461.369 786.157C459.889 731.067 461.389 675.607 464.819 620.367C465.489 610.407 467.709 601.957 471.489 595.027C475.269 588.117 479.749 582.717 484.919 578.877C490.079 575.047 495.409 572.277 500.889 570.587C506.359 568.907 511.339 568.147 515.549 568.067C526.739 567.867 536.239 574.277 543.229 581.157C554.199 591.967 557.229 611.977 558.659 627.927C561.139 655.567 562.929 683.507 564.129 711.267C565.459 741.867 566.419 772.657 567.059 803.297C567.669 832.607 567.899 862.077 567.699 891.397C567.529 915.917 567.129 940.527 566.379 965.087C566.049 975.667 564.349 984.687 561.409 992.227C558.459 999.767 554.939 1005.9 550.849 1010.66C546.749 1015.42 542.269 1018.9 537.379 1021.1C532.489 1023.3 527.769 1024.22 523.429 1024.18L523.439 1024.19Z" fill="white"/>
<path d="M716.501 1003.68C710.861 1005.83 705.771 1007.2 701.221 1007.83C696.671 1008.45 693.081 1007.32 690.411 1004.42C687.731 1001.52 686.181 996.488 685.821 989.348C685.311 979.078 687.321 968.568 689.151 958.608C690.701 950.128 692.611 941.248 694.531 932.208C696.451 923.178 698.161 914.148 699.641 905.148C700.611 899.278 700.701 891.408 699.861 881.418C699.021 871.448 697.361 861.108 695.051 851.378C692.681 841.408 689.971 832.618 686.921 825.238C683.871 817.868 680.851 814.228 678.021 814.498C676.361 814.658 675.231 816.888 674.611 821.148C673.991 825.418 673.571 828.608 673.381 830.708C672.301 842.698 671.321 854.818 670.921 866.858C670.601 876.318 670.561 885.948 670.921 895.428C671.251 904.268 671.731 913.088 672.391 921.788C673.141 931.628 673.681 941.528 674.011 951.398C674.131 954.328 674.201 957.418 674.231 960.678C674.261 963.938 673.961 967.239 673.361 970.589C671.961 978.399 669.071 985.178 664.821 990.998C660.561 996.828 655.931 1001.66 650.901 1005.49C645.861 1009.32 640.881 1012.22 635.891 1014.18C630.901 1016.14 626.851 1017.35 623.751 1017.84C620.641 1018.34 617.321 1018.48 613.791 1018.25C610.251 1018.02 606.901 1017.09 603.721 1015.47C600.541 1013.84 597.701 1011.21 595.181 1007.57C592.661 1003.93 590.771 999.148 589.511 993.208C586.901 978.578 586.031 963.639 585.541 948.839C584.851 927.789 584.621 906.578 584.741 885.508C584.871 862.728 585.231 839.828 585.731 817.008C586.151 797.948 586.571 778.868 586.981 759.808C587.521 734.968 587.831 709.988 588.331 685.268C588.841 659.808 590.991 634.458 594.701 609.118C596.091 600.508 598.921 593.528 603.191 588.218C607.451 582.908 612.381 578.668 617.941 575.508C623.491 572.348 629.181 570.279 634.961 569.279C640.731 568.289 645.591 567.778 649.511 567.758C658.131 567.708 666.351 570.388 673.641 575.808C682.951 582.728 688.021 594.588 690.961 605.648C692.151 609.838 693.731 616.478 695.651 625.478C697.791 635.538 699.851 645.628 701.841 655.708C704.081 667.048 706.331 678.448 708.651 689.738C710.791 700.158 713.051 710.648 715.691 720.978C718.071 730.268 720.341 737.818 722.581 743.668C724.821 749.528 726.991 752.308 729.141 752.108C729.861 752.038 730.491 751.018 731.031 749.038C731.571 747.058 732.011 744.868 732.351 742.478C732.691 740.088 732.961 737.688 733.181 735.288C733.391 732.898 733.511 731.478 733.551 731.038C734.401 721.668 734.371 711.568 733.471 702.198C732.541 692.538 731.371 682.708 729.811 673.078C728.231 663.238 726.891 653.278 725.671 643.438C724.451 633.598 723.971 623.138 724.301 613.218C724.591 604.488 726.001 596.639 728.661 589.839C731.321 583.059 734.631 577.289 738.601 572.589C742.571 567.889 746.821 564.228 751.361 561.628C755.891 559.038 760.151 557.728 764.131 557.688C767.611 557.658 771.831 558.319 776.771 559.649C781.701 560.979 786.551 563.098 791.291 565.988C796.031 568.878 800.311 572.428 804.101 576.608C807.891 580.798 810.541 585.988 812.031 592.158C814.851 604.208 816.381 616.628 817.151 628.908C818.151 644.808 818.601 660.948 818.381 676.798C818.131 694.408 817.151 712.408 815.611 729.968C814.081 747.268 811.991 764.888 809.421 782.078C807.161 797.188 804.461 812.438 801.311 827.498C798.881 839.118 796.231 850.708 793.281 862.208C792.131 866.698 790.321 873.439 787.781 882.279C785.171 891.399 782.431 900.508 779.581 909.558C776.641 918.878 773.711 927.478 770.821 935.388C767.931 943.308 765.631 948.838 764.011 952.118C761.181 957.938 757.591 963.628 753.291 969.268C748.991 974.898 744.571 980.078 740.051 984.788C735.531 989.498 731.131 993.588 726.861 997.018C722.591 1000.46 719.151 1002.68 716.511 1003.69L716.501 1003.68Z" fill="white"/>
<path d="M846.6 926.1C838.92 931.48 830.31 937.43 820.67 939.26C813.2 940.68 807.66 937.56 804.39 929.82C799.19 917.51 800.11 902.8 800.54 889.65C801.38 863.34 807.31 836.43 812.97 810.57C819.6 780.26 827.81 749.84 837.88 720.58C847.35 693.06 858.63 665.34 873.51 640.3C885.88 619.49 900.66 599.76 919.27 584C934.5 571.11 954.59 563.09 974.69 562.56C979.41 562.44 984.57 563.16 990.11 564.7C995.65 566.23 1000.72 568.98 1005.28 572.85C1009.83 576.72 1013.45 582.02 1016.01 588.67C1018.58 595.32 1019.23 603.94 1017.74 614.57C1017.04 619.54 1015.57 626.03 1013.17 634.07C1010.77 642.11 1007.81 649.93 1004.32 657.56C1000.83 665.2 997.08 671.97 993.16 677.87C989.24 683.79 985.65 687.11 982.45 687.8C980.45 688.24 978.14 687.83 975.48 686.54C972.82 685.25 969.99 683.85 966.99 682.36C963.98 680.86 960.81 679.43 957.48 678.07C954.15 676.71 950.77 676.28 947.4 676.84C940.45 677.99 933.94 682.01 927.9 688.84C921.44 696.13 915.58 705.24 911.36 714C906.32 724.46 901.74 735.02 897.85 745.83C894.07 756.33 890.55 767.27 887.49 778.16C885.24 786.18 883.51 794.47 882.25 802.86C880.98 811.26 880.45 818.56 880.66 824.75C880.87 830.94 882.06 835.5 884.27 838.44C886.48 841.39 890.12 841.61 895.35 839.26C898.41 837.89 901.58 835.56 904.88 832.31C908.18 829.07 911.44 825.4 914.64 821.34C917.84 817.27 920.81 812.99 923.53 808.47C926.25 803.95 928.38 799.91 929.93 796.33C933.16 788.86 933.66 784.74 931.59 784.07C929.52 783.4 925.98 783.92 920.99 785.63C918.49 786.49 916.13 787.07 913.89 787.36C911.65 787.65 910.01 786.82 908.93 784.83C907.86 782.84 907.5 779.48 907.81 774.73C908.12 769.98 909.66 762.92 912.27 753.51C914.89 744.1 917.46 736.58 920.19 731.11C922.91 725.65 925.88 721.24 929.14 717.93C932.39 714.62 935.89 712.32 939.64 711C943.38 709.68 947.48 708.45 951.69 707.62C960.81 705.81 970.99 703.78 980.45 705.75C987.16 707.15 991.56 710.85 993.44 716.56C995.31 722.28 994.9 730.22 991.91 740.19C988.03 753.11 982.12 765.47 975.8 777.08C966.68 793.82 955.56 810.16 943.82 825.38C932.99 839.42 921.12 853.1 909 866.34C898.3 878.02 887.23 889.39 875.93 900.47C866.66 909.55 856.99 918.84 846.61 926.12L846.6 926.1Z" fill="white"/>
</g>
<defs>
<clipPath id="clip0_4702_35468">
<rect width="1080" height="1080" fill="white"/>
</clipPath>
</defs>
</svg>
