<svg width="962" height="968" viewBox="0 0 962 968" fill="none" xmlns="http://www.w3.org/2000/svg">
<path d="M63.8355 473.968C57.0323 474.408 48.9084 472.638 40.7445 469.878C32.5807 467.118 25.1571 462.478 18.574 456.518C12.0709 450.628 6.1381 441.249 3.26674 433.019C-0.615104 421.889 -0.715151 409.449 1.2858 397.88C2.23625 392.34 3.97707 384.61 6.68836 374.89C9.38964 365.2 12.9813 355.321 16.8732 346.111C20.4949 337.551 25.0671 328.661 30.1795 320.841C34.9818 313.492 39.554 309.112 43.826 307.942C45.957 307.352 48.168 307.982 50.4892 309.912C52.8103 311.842 55.2514 314.142 57.8026 316.821C60.3638 319.501 63.2552 321.891 66.4367 323.941C69.6182 325.991 73.0099 326.721 76.5415 326.021C82.5544 324.831 87.8969 321.961 92.5291 317.321C97.1613 312.682 100.753 304.342 103.664 292.572C107.156 278.452 109.717 264.043 111.708 249.693C113.549 236.423 115.52 222.924 118.031 209.914C120.252 198.404 123.234 187.004 126.715 175.695C129.697 166.005 134.509 155.945 139.742 147.275C144.524 139.346 149.906 132.046 155.729 125.366C161.542 118.696 167.165 112.816 172.577 107.726C177.99 102.636 183.072 98.2565 187.884 94.6366C192.697 91.0166 196.699 88.2367 199.93 86.2767C206.693 82.1668 210.565 82.3768 211.986 87.2767C213.406 92.1766 213.306 100.196 211.866 111.496C210.085 125.476 207.504 139.396 204.882 153.245C201.621 170.495 198.399 187.804 195.288 205.094C192.116 222.714 189.085 240.413 186.124 258.053C183.662 272.773 181.431 287.692 179.1 302.342C175.378 325.711 169.916 348.791 161.922 371.01C155.079 390.03 145.854 409.219 134.499 426.009C125.415 439.449 113.729 453.188 100.503 461.508C88.3471 469.158 78.0322 473.068 63.8555 473.978L63.8355 473.968Z" fill="black"/>
<path d="M229.124 469.813C213.056 470.273 198.95 458.933 190.986 445.854C178.96 426.094 178.09 402.015 179.61 379.885C180.851 361.766 184.253 343.176 187.654 325.076C192.486 299.347 199.2 273.708 206.803 248.768C215.227 221.139 225.252 193.539 236.267 166.85C246.712 141.521 258.568 116.281 271.924 92.3017C282.729 72.9021 294.385 53.1425 308.101 36.0729C316.876 25.1532 327.13 13.6334 340.667 8.60355C349.791 5.21363 361.157 12.6835 364.768 20.7133C371.431 35.4929 376.864 52.7026 380.416 69.2622C385.648 93.6416 388.98 118.891 391.891 143.75C395.243 172.43 398.084 201.459 400.295 230.289C402.386 257.598 404.217 285.097 405.348 312.507C406.148 331.926 407.038 351.436 406.748 370.905C406.548 384.625 405.318 398.745 401.826 411.734C398.995 422.264 395.503 433.064 389.7 442.654C384.628 451.023 378.635 457.603 371.692 462.193C364.738 466.793 357.245 469.093 349.211 469.123C344.539 469.143 339.626 468.193 334.494 466.323C329.351 464.453 324.679 461.273 320.497 456.813C316.315 452.363 312.864 446.514 310.182 439.304C307.501 432.094 306.281 423.374 306.551 413.174C306.741 406.225 307.091 398.705 307.631 390.645C308.161 382.595 308.221 375.045 307.781 367.995C307.341 360.966 306 355.136 303.759 350.526C301.518 345.916 297.556 343.786 291.874 344.116C284.21 344.566 278.978 349.516 276.066 358.766C272.835 369.035 271.584 379.825 270.924 390.355C270.614 395.245 270.634 400.105 270.714 404.645C270.794 409.184 270.754 413.984 270.594 419.014C270.303 428.624 268.803 436.724 266.061 443.214C263.31 449.714 259.868 454.953 255.716 458.913C251.565 462.873 247.132 465.683 242.43 467.323C237.718 468.963 233.196 469.713 229.114 469.833L229.124 469.813ZM295.816 273.468C300.608 273.018 304.2 269.578 306.571 263.128C308.942 256.698 310.472 249.808 311.193 242.528C311.443 239.958 311.833 234.298 312.413 225.649C312.994 216.999 313.354 208.239 313.514 199.399C313.674 190.569 313.514 182.79 312.984 176.05C312.463 169.32 311.123 166.16 308.902 166.51C306.671 166.86 304.25 170.69 301.648 178.04C299.037 185.4 296.626 193.759 294.455 203.169C292.284 212.579 290.493 221.629 289.082 230.269C287.682 238.918 286.841 244.768 286.501 247.728C285.681 254.938 285.891 261.138 287.121 266.318C288.352 271.498 291.263 273.898 295.816 273.468Z" fill="black"/>
<path d="M637.788 466.354C633.156 466.324 628.124 464.994 622.681 462.345C617.239 459.695 612.076 455.595 607.224 450.065C602.372 444.545 598.26 437.935 594.908 430.295C591.556 422.655 589.806 413.836 589.636 403.916C589.395 390.086 590.296 376.186 592.017 362.517C593.717 349.057 595.028 335.447 596.239 321.918C597.819 304.268 599.21 286.369 599.57 268.789C599.93 251.229 599.38 233.3 598.22 215.67C598.019 212.67 597.389 209.08 596.369 204.94C595.348 200.81 593.647 198.661 591.266 198.471C589.125 198.301 587.525 200.84 586.444 206.12C585.363 211.41 584.393 218.02 583.533 226.01C582.662 234 581.682 242.82 580.551 252.479C579.421 262.149 577.77 271.109 575.599 279.319C573.418 287.538 570.566 294.448 567.065 300.018C563.553 305.588 558.961 308.308 553.318 308.158C548.176 308.018 543.944 305.518 540.622 300.638C537.301 295.758 534.679 289.778 532.738 282.699C530.808 275.629 529.307 268.009 528.246 259.909C527.186 251.799 526.205 244.309 525.295 237.4C524.385 230.5 523.444 224.74 522.464 220.1C521.483 215.46 520.012 213.12 518.032 213.08C516.291 213.04 514.95 214.33 514.01 216.95C513.059 219.57 512.429 222.76 512.119 226.5C511.809 230.26 511.608 233.92 511.538 237.47C511.468 241.03 511.428 243.499 511.458 244.819C511.869 261.489 513.469 278.309 516.171 294.718C518.852 310.958 522.274 327.508 525.965 343.707C529.157 357.687 532.658 371.857 535.72 385.776C537.781 395.156 540.022 404.986 540.152 414.716C540.282 424.695 538.021 433.145 533.529 439.865C529.027 446.595 523.634 451.905 517.351 455.765C511.058 459.635 504.545 462.295 497.822 463.754C491.089 465.214 485.446 465.844 481.224 465.934C471.93 466.134 460.924 458.745 455.992 451.385C448.338 439.965 442.576 426.805 438.304 413.546C433.001 397.076 429.6 379.376 427.118 362.127C424.437 343.537 422.446 324.598 421.316 305.898C420.255 288.308 419.725 270.369 419.715 252.709C419.715 238.78 419.915 224.68 420.445 210.69C420.945 197.751 421.596 184.761 422.416 171.871C423.397 156.541 424.677 141.072 426.358 125.862C428.069 110.403 430.25 94.6429 433.011 79.4232C435.462 65.9035 438.434 51.9239 443.046 39.0842C446.538 29.3744 450.559 19.3946 456.892 10.8648C462.165 3.76497 468.218 0.105049 475.321 0.00505171C485.056 -0.134945 493.89 2.63499 500.943 8.29486C511.128 16.4747 516.281 31.9743 519.272 44.604C520.293 48.5139 521.753 53.5238 523.654 59.6737C525.565 65.8335 527.766 71.8634 530.257 77.7433C532.748 83.6332 535.52 88.703 538.521 92.8929C541.533 97.0928 544.624 99.3128 547.756 99.5428C550.877 99.7728 553.418 97.8628 555.319 93.8529C557.21 89.843 558.801 85.1431 560.071 79.7832C561.342 74.4334 562.263 68.8035 562.863 62.9236C563.453 57.0437 563.963 52.2639 564.393 48.5439C566.124 37.9842 567.205 24.8045 575.599 17.5747C580.801 13.0948 588.105 11.8148 596.709 13.6747C599.96 14.3747 603.742 16.0847 608.084 18.8246C612.436 21.5646 616.818 25.1045 621.261 29.4444C625.713 33.7943 629.995 38.7142 634.127 44.204C638.249 49.6939 642.01 55.4738 644.812 61.3537C649.904 72.0234 653.066 84.0831 656.247 95.5929C661.099 113.182 665.251 131.302 668.933 149.202C672.785 167.941 676.127 187.041 678.958 206.01C680.989 219.61 682.79 233.34 684.41 247.029C684.811 250.409 685.491 256.749 686.381 266.129C687.422 277.109 688.372 288.109 689.273 299.088C690.363 312.438 691.224 325.848 691.924 339.237C692.624 352.627 693.155 366.077 693.385 379.456C693.575 390.416 693.675 401.446 693.445 412.446C693.255 421.805 692.774 427.655 692.084 429.935C690.263 437.255 687.182 443.325 682.85 448.135C678.518 452.955 673.695 456.755 668.393 459.525C663.09 462.295 657.748 464.134 652.395 465.044C647.043 465.954 642.16 466.404 637.788 466.374V466.354Z" fill="black"/>
<path d="M908.137 469.266C904.225 469.196 899.953 468.036 895.291 465.746C890.628 463.456 886.176 459.926 881.914 455.146C877.652 450.376 873.96 444.656 870.829 438.026C867.698 431.406 865.747 423.707 865.186 415.307C864.396 403.627 864.276 391.957 864.536 380.158C864.786 368.838 864.806 357.318 864.376 346.148C863.826 331.629 862.765 316.639 860.524 302.049C858.233 287.11 854.751 272.39 850.639 257.98C849.929 255.49 848.718 252.441 847.078 248.871C845.437 245.311 843.606 243.241 841.595 242.661C839.794 242.141 838.974 243.941 839.074 248.121C839.174 252.311 839.594 257.63 840.254 264.16C840.915 270.69 841.545 277.93 842.075 285.9C842.606 293.88 842.476 301.239 841.725 307.959C840.975 314.689 839.384 320.269 837.043 324.669C834.702 329.079 831.04 330.979 826.168 330.289C821.726 329.659 817.784 327.059 814.352 322.459C810.921 317.849 807.929 312.319 805.358 305.879C802.787 299.449 800.486 292.58 798.425 285.32C796.364 278.06 794.393 271.34 792.522 265.14C790.661 258.95 788.9 253.751 787.279 249.521C785.659 245.291 783.978 243.001 782.257 242.641C780.746 242.321 779.806 243.241 779.436 245.411C779.065 247.581 779.035 250.301 779.376 253.571C779.706 256.85 780.126 260.07 780.606 263.21C781.096 266.36 781.437 268.53 781.657 269.73C784.428 284.92 788.18 299.939 792.412 314.669C796.664 329.429 801.236 344.328 805.938 359.068C809.96 371.638 813.832 384.268 817.524 396.937C820.815 408.207 822.546 416.787 822.876 422.697C823.366 431.556 821.716 438.906 817.964 444.756C814.212 450.626 809.58 455.266 804.127 458.636C798.665 462.016 792.952 464.346 787.019 465.596C781.076 466.846 776.164 467.456 772.322 467.416C763.668 467.326 755.994 462.766 749.431 453.646C741.568 442.716 736.535 430.287 732.123 417.797C726.55 402.017 722.499 385.278 718.847 368.748C714.915 350.918 711.443 332.939 708.392 314.969C705.53 298.1 702.809 281.13 700.278 264.19C698.297 250.901 696.306 237.571 694.425 224.261C692.694 212.041 690.974 199.802 689.153 187.592C687.022 173.262 684.991 158.903 683 144.553C681.029 130.413 679.128 116.144 677.607 102.054C676.357 90.4742 675.256 78.6945 675.376 66.9548C675.476 57.245 676.667 50.1251 679.048 45.4753C681.429 40.8254 685.571 39.9354 691.674 42.5253C700.428 46.2352 709.492 52.8051 716.246 59.4349C727.301 70.2947 735.445 83.5444 743.288 96.8341C745.349 100.484 748.091 105.194 751.502 110.994C754.914 116.794 758.486 122.554 762.217 128.233C765.949 133.923 769.641 138.953 773.273 143.293C776.904 147.633 780.056 150.303 782.697 151.323C785.328 152.343 786.909 151.423 787.339 148.643C787.78 145.863 787.74 142.463 787.189 138.483C786.649 134.503 785.689 130.253 784.338 125.733C782.977 121.214 781.827 117.584 780.956 114.794C777.165 102.534 776.214 96.1041 778.665 94.9141C781.116 93.7241 785.639 95.6641 792.452 100.574C795.023 102.434 798.365 105.234 802.487 108.944C806.619 112.664 811.081 116.924 815.893 121.704C820.715 126.483 825.638 131.533 830.66 136.843C835.682 142.153 840.445 147.353 844.747 152.443C852.06 161.083 858.923 170.332 865.336 179.662C874.561 193.092 883.485 207.032 891.449 221.101C899.443 235.211 906.846 250.071 913.489 264.97C918.111 275.33 922.323 286.05 926.185 296.79C927.136 299.419 928.857 304.339 931.148 311.649C933.449 318.959 935.97 327.539 938.581 337.389C941.332 347.768 943.724 358.398 945.745 368.918C947.756 379.358 949.446 390.067 950.687 400.657C951.847 410.627 952.538 419.377 952.878 426.797C953.218 434.226 953.038 438.876 952.558 440.676C951.347 446.456 948.976 451.236 945.514 455.016C942.043 458.806 938.111 461.806 933.729 463.986C929.357 466.166 924.905 467.626 920.422 468.316C915.94 469.006 911.828 469.336 908.137 469.276V469.266Z" fill="black"/>
<path d="M177.411 870.572C165.095 861.702 153.57 851.582 142.514 841.163C131.609 830.873 121.134 820.103 110.989 809.093C98.8737 795.954 87.4482 782.064 76.9733 767.754C63.0066 748.675 50.4707 727.925 39.9457 706.976C28.2402 683.676 18.4655 658.667 12.3626 633.477C7.35023 612.828 4.62894 590.888 6.62989 569.219C8.10059 553.259 12.7428 536.239 22.0472 523.02C30.021 511.69 43.1472 505.01 57.0738 505.45C64.3973 505.68 73.0314 506.46 82.606 507.59C91.7903 508.67 102.665 512.91 110.319 517.9C120.064 524.25 127.637 533.749 133.53 543.189C141.864 556.529 144.405 573.529 146.166 589.398C146.706 594.288 147.107 600.438 147.597 607.558C148.087 614.698 148.167 621.528 147.847 628.037C147.527 634.547 146.586 640.027 145.016 644.467C143.435 648.907 140.814 650.797 137.082 650.207C133.79 649.687 129.808 647.617 125.166 644.027C120.514 640.447 115.482 636.437 110.089 632.027C104.696 627.617 99.3739 623.617 94.1614 620.038C88.949 616.448 84.1067 614.348 79.6345 613.668C74.1019 612.828 70.6303 613.738 69.1996 616.378C67.7589 619.028 68.009 625.317 70.18 635.177C72.191 644.307 74.8723 650.147 77.9737 652.887C81.0752 655.617 84.887 657.487 89.4392 658.457C94.2015 659.467 98.6436 659.347 102.786 658.017C106.917 656.687 111.47 656.447 116.392 657.357C119.604 657.947 122.805 660.007 125.997 663.547C129.198 667.096 132.139 671.436 134.861 676.556C137.582 681.676 140.023 687.116 142.224 692.836C144.415 698.556 146.106 703.876 147.287 708.766C148.287 712.915 149.077 717.695 149.698 723.065C150.318 728.435 150.598 733.485 150.528 738.175C150.458 742.875 149.898 746.685 148.807 749.605C147.717 752.535 145.916 753.554 143.355 752.745C138.803 751.305 133.88 748.595 128.538 744.685C123.195 740.775 118.273 738.095 113.821 736.595C109.759 735.225 107.108 734.985 105.867 735.865C104.626 736.745 105.527 741.075 108.628 748.685C112.59 758.414 117.513 768.604 124.806 776.194C129.828 781.424 135.861 785.534 142.674 788.384C146.356 789.924 149.788 790.774 152.989 790.914C156.191 791.044 159.412 791.044 162.654 790.914C165.885 790.774 169.207 790.744 172.559 790.824C175.92 790.904 179.582 791.574 183.524 792.864C186.275 793.764 189.157 796.214 192.108 800.213C195.069 804.223 197.941 808.923 200.752 814.283C203.563 819.653 206.145 825.063 208.526 830.523C210.907 835.983 212.928 840.663 214.168 844.392C217.02 852.972 221.222 864.192 218.64 873.432C217.03 879.182 213.638 882.542 208.976 883.252C204.314 883.962 199.041 882.772 192.968 879.862C186.895 876.952 181.793 873.762 177.411 870.612V870.572Z" fill="black"/>
<path d="M368.689 954.785C360.115 952.905 352.911 948.805 346.849 942.705C340.786 936.605 335.593 929.275 331.241 920.875C326.699 912.106 322.907 902.086 320.276 892.606C317.355 882.086 314.583 871.247 312.262 860.507C309.951 849.767 307.55 838.947 305.359 828.228C303.418 818.768 300.757 808.878 297.175 799.838C296.135 797.318 294.714 795.218 292.943 793.548C291.172 791.878 289.391 790.898 287.62 790.598C284.959 790.148 283.689 792.178 283.809 796.638C283.939 801.108 284.349 805.118 284.969 808.658C286.61 818.038 288.941 827.788 291.983 836.837C294.714 844.967 297.435 852.547 300.156 859.487C302.878 866.437 305.459 873.127 307.9 879.556C310.341 885.986 312.372 892.896 314.053 900.216C315.814 907.906 316.004 914.136 314.733 918.886C313.453 923.645 311.512 927.165 308.891 929.455C306.269 931.755 303.308 933.035 299.966 933.335C296.625 933.625 293.563 933.185 290.722 932.065C284.859 929.765 278.356 924.795 271.153 917.236C262.088 907.726 254.655 896.816 247.571 885.856C237.377 870.077 229.003 852.787 221.349 835.657C210.744 811.918 202.78 786.669 196.477 761.539C191.545 741.84 187.253 721.48 183.751 701.46C180.35 682.031 177.768 662.031 176.488 642.432C175.327 624.692 175.017 606.213 176.888 588.493C178.479 573.413 181.09 558.424 186.593 544.014C190.945 532.634 197.538 521.915 206.682 513.805C215.406 506.065 227.062 502.575 238.567 502.715C248.272 502.835 258.397 503.595 268.021 504.725C278.466 505.955 289.862 508.385 299.666 512.045C310.561 516.105 321.066 520.805 330.491 526.884C340.846 533.564 349.31 541.674 357.364 551.364C365.798 561.504 372.131 574.263 376.533 586.993C381.825 602.333 384.296 618.982 384.597 635.242C384.917 652.652 384.667 670.041 381.815 687.251C379.734 699.82 376.463 712.44 371.88 724.26C368.639 732.62 363.717 741.97 357.844 748.899C352.611 755.069 347.659 760.269 342.927 764.409C346.699 769.819 350.29 775.949 353.702 782.739C357.113 789.548 360.045 796.638 362.596 803.828C365.928 813.198 369.109 821.318 371.9 828.098C374.692 834.877 377.543 841.237 380.435 847.157C383.336 853.087 386.337 859.177 389.449 865.457C392.55 871.727 396.002 878.996 399.754 887.186C402.135 892.116 404.236 897.096 406.067 902.106C407.898 907.116 409.068 912.716 409.638 918.846C410.419 927.285 409.268 934.075 406.327 939.245C403.385 944.415 399.714 948.265 395.312 950.805C390.91 953.345 386.247 954.835 381.265 955.285C376.283 955.735 372.111 955.535 368.679 954.785H368.689ZM278.336 701.35C283.769 701.94 287.851 699.51 290.642 694.011C293.423 688.511 294.324 679.861 293.363 668.011C292.513 657.481 290.202 649.812 286.34 645.132C282.478 640.462 278.346 637.962 273.964 637.642C268.121 637.212 263.259 639.152 259.437 643.382C255.605 647.622 254.275 656.012 255.545 668.471C256.596 678.781 259.357 686.631 263.699 692.161C268.031 697.681 272.904 700.76 278.346 701.35H278.336Z" fill="black"/>
<path d="M466.676 967.997C452.619 967.867 441.084 956.907 434.721 945.277C424.366 926.338 419.934 904.478 416.952 883.499C409.809 833.21 405.947 781.171 404.577 729.972C403.096 674.884 404.597 619.425 408.028 564.186C408.699 554.226 410.92 545.777 414.701 538.847C418.483 531.937 422.965 526.537 428.138 522.697C433.3 518.867 438.633 516.097 444.115 514.407C449.588 512.727 454.57 511.967 458.782 511.887C469.978 511.687 479.482 518.097 486.475 524.977C497.451 535.787 500.482 555.796 501.913 571.746C504.394 599.385 506.185 627.325 507.385 655.084C508.716 685.683 509.676 716.473 510.317 747.112C510.927 776.421 511.157 805.891 510.957 835.21C510.787 859.729 510.387 884.339 509.636 908.898C509.306 919.478 507.605 928.498 504.664 936.038C501.713 943.578 498.191 949.707 494.099 954.467C489.997 959.227 485.515 962.707 480.623 964.907C475.73 967.107 471.008 968.027 466.666 967.987L466.676 967.997Z" fill="black"/>
<path d="M659.829 947.489C654.187 949.639 649.094 951.009 644.542 951.639C639.99 952.259 636.398 951.129 633.727 948.229C631.046 945.329 629.495 940.299 629.135 933.159C628.625 922.889 630.636 912.379 632.467 902.42C634.017 893.94 635.928 885.06 637.849 876.02C639.77 866.991 641.481 857.961 642.961 848.961C643.932 843.091 644.022 835.221 643.182 825.231C642.341 815.262 640.68 804.922 638.369 795.192C635.998 785.222 633.287 776.433 630.235 769.053C627.184 761.683 624.163 758.043 621.331 758.313C619.67 758.473 618.54 760.703 617.92 764.963C617.299 769.233 616.879 772.423 616.689 774.523C615.609 786.512 614.628 798.632 614.228 810.672C613.908 820.132 613.868 829.761 614.228 839.241C614.558 848.081 615.038 856.901 615.699 865.6C616.449 875.44 616.989 885.34 617.319 895.21C617.439 898.14 617.509 901.23 617.539 904.49C617.569 907.75 617.269 911.05 616.669 914.399C615.268 922.209 612.377 928.989 608.125 934.809C603.863 940.639 599.231 945.469 594.198 949.299C589.156 953.129 584.174 956.028 579.181 957.988C574.189 959.948 570.137 961.158 567.035 961.648C563.924 962.148 560.602 962.288 557.071 962.058C553.529 961.828 550.177 960.898 546.996 959.278C543.814 957.648 540.973 955.018 538.452 951.379C535.931 947.739 534.04 942.959 532.779 937.019C530.168 922.389 529.298 907.45 528.807 892.65C528.117 871.6 527.887 850.391 528.007 829.321C528.137 806.542 528.497 783.642 528.997 760.823C529.418 741.763 529.838 722.684 530.248 703.624C530.788 678.785 531.098 653.805 531.599 629.086C532.109 603.626 534.26 578.277 537.972 552.938C539.362 544.328 542.194 537.348 546.466 532.038C550.728 526.728 555.66 522.488 561.223 519.328C566.775 516.168 572.468 514.099 578.251 513.099C584.024 512.109 588.886 511.599 592.808 511.579C601.432 511.529 609.656 514.208 616.949 519.628C626.264 526.548 631.336 538.408 634.277 549.468C635.468 553.658 637.049 560.297 638.97 569.297C641.111 579.357 643.172 589.447 645.163 599.527C647.404 610.866 649.655 622.266 651.976 633.556C654.117 643.976 656.378 654.465 659.019 664.795C661.4 674.085 663.671 681.635 665.912 687.485C668.153 693.344 670.324 696.124 672.476 695.924C673.196 695.854 673.826 694.834 674.366 692.854C674.907 690.874 675.347 688.685 675.687 686.295C676.027 683.905 676.297 681.505 676.517 679.105C676.727 676.715 676.848 675.295 676.888 674.855C677.738 665.485 677.708 655.385 676.808 646.016C675.877 636.356 674.707 626.526 673.146 616.896C671.565 607.056 670.224 597.097 669.004 587.257C667.783 577.417 667.303 566.957 667.633 557.037C667.923 548.308 669.334 540.458 671.995 533.658C674.656 526.878 677.968 521.108 681.94 516.408C685.912 511.709 690.164 508.049 694.706 505.449C699.238 502.859 703.5 501.549 707.482 501.509C710.964 501.479 715.186 502.139 720.128 503.469C725.06 504.799 729.913 506.919 734.655 509.809C739.397 512.699 743.679 516.248 747.471 520.428C751.263 524.618 753.914 529.808 755.405 535.978C758.226 548.028 759.757 560.447 760.527 572.727C761.528 588.627 761.978 604.766 761.758 620.616C761.508 638.226 760.527 656.225 758.987 673.785C757.456 691.084 755.365 708.704 752.794 725.894C750.533 741.003 747.831 756.253 744.68 771.313C742.249 782.932 739.597 794.522 736.646 806.022C735.495 810.512 733.685 817.252 731.143 826.091C728.532 835.211 725.791 844.321 722.939 853.371C719.998 862.691 717.067 871.29 714.175 879.2C711.284 887.12 708.983 892.65 707.362 895.93C704.531 901.75 700.939 907.44 696.637 913.079C692.335 918.709 687.913 923.889 683.391 928.599C678.869 933.309 674.466 937.399 670.194 940.829C665.922 944.269 662.481 946.489 659.839 947.499L659.829 947.489Z" fill="black"/>
<path d="M789.989 869.92C782.306 875.299 773.692 881.249 764.047 883.079C756.573 884.499 751.031 881.379 747.759 873.64C742.557 861.33 743.477 846.62 743.907 833.47C744.748 807.161 750.681 780.252 756.343 754.392C762.977 724.083 771.19 693.664 781.265 664.404C790.74 636.885 802.025 609.166 816.912 584.126C829.288 563.317 844.075 543.587 862.694 527.827C877.931 514.938 898.031 506.918 918.14 506.388C922.862 506.268 928.025 506.988 933.568 508.528C939.11 510.058 944.183 512.808 948.745 516.678C953.297 520.548 956.919 525.847 959.48 532.497C962.051 539.147 962.701 547.767 961.211 558.397C960.51 563.367 959.04 569.856 956.638 577.896C954.237 585.936 951.276 593.756 947.784 601.386C944.293 609.026 940.541 615.795 936.619 621.695C932.697 627.615 929.105 630.935 925.904 631.625C923.903 632.065 921.592 631.655 918.931 630.365C916.269 629.075 913.438 627.675 910.437 626.185C907.425 624.685 904.254 623.255 900.922 621.895C897.59 620.535 894.209 620.105 890.837 620.665C883.884 621.815 877.371 625.835 871.328 632.665C864.865 639.955 859.002 649.065 854.78 657.824C849.738 668.284 845.156 678.844 841.264 689.654C837.482 700.153 833.96 711.093 830.899 721.983C828.648 730.003 826.917 738.293 825.656 746.682C824.386 755.082 823.855 762.382 824.066 768.572C824.276 774.762 825.466 779.322 827.677 782.262C829.888 785.212 833.53 785.432 838.763 783.082C841.824 781.712 844.995 779.382 848.297 776.132C851.599 772.892 854.86 769.222 858.062 765.162C861.263 761.092 864.235 756.812 866.956 752.292C869.677 747.772 871.808 743.732 873.359 740.153C876.59 732.683 877.091 728.563 875.02 727.893C872.949 727.223 869.407 727.743 864.415 729.453C861.914 730.313 859.552 730.893 857.311 731.183C855.07 731.473 853.429 730.643 852.349 728.653C851.278 726.663 850.918 723.303 851.228 718.553C851.539 713.803 853.079 706.743 855.691 697.334C858.312 687.924 860.883 680.404 863.614 674.934C866.336 669.474 869.307 665.064 872.569 661.754C875.82 658.444 879.322 656.144 883.074 654.824C886.815 653.505 890.917 652.275 895.129 651.445C904.254 649.635 914.438 647.605 923.903 649.575C930.616 650.975 935.018 654.674 936.899 660.384C938.77 666.104 938.36 674.044 935.368 684.014C931.487 696.934 925.574 709.293 919.251 720.903C910.126 737.643 899.001 753.982 887.256 769.202C876.42 783.242 864.545 796.921 852.419 810.161C841.714 821.841 830.639 833.21 819.333 844.29C810.059 853.37 800.384 862.66 789.999 869.94L789.989 869.92Z" fill="black"/>
</svg>
