<svg width="1555" height="298" viewBox="0 0 1555 298" fill="none" xmlns="http://www.w3.org/2000/svg">
<rect width="1555" height="298" fill="white"/>
<g clip-path="url(#clip0_4702_35569)">
<path d="M106.842 246.523C100.958 246.523 94.577 245.854 87.7185 244.516C80.8599 243.179 74.479 241 68.5948 237.961C62.7105 234.923 57.8007 230.967 53.8842 226.055C49.9678 221.144 48 215.124 48 207.996C48 205.148 48.3057 201.211 48.9361 196.224C49.5666 191.236 50.5791 186.324 52.012 181.508C53.4448 176.692 55.3935 172.507 57.8962 168.933C60.3798 165.36 63.6085 163.582 67.5249 163.582C69.4927 163.582 71.8999 164.29 74.7465 165.723C77.593 167.156 80.5925 168.761 83.7065 170.539C86.8206 172.316 90.0875 173.921 93.469 175.355C96.8505 176.788 100.06 177.495 103.098 177.495C108.275 177.495 112.459 176.559 115.669 174.686C118.878 172.813 120.483 169.029 120.483 163.315C120.483 156.359 119.184 149.097 116.605 141.51C114.026 133.923 111.16 126.489 108.046 119.169C104.932 111.85 102.066 104.855 99.4869 98.1666C96.9078 91.4778 95.6087 85.5535 95.6087 80.3745C95.6087 75.5586 97.118 71.6409 100.156 68.6023C103.193 65.5637 106.842 63.2514 111.122 61.6461C115.401 60.0408 119.948 58.9706 124.762 58.4355C129.577 57.9004 133.761 57.6328 137.333 57.6328C144.822 57.6328 151.241 59.7732 156.591 64.054C161.94 68.3348 166.449 73.9151 170.098 80.7759C173.747 87.6366 176.65 95.3955 178.79 104.053C180.93 112.71 182.573 121.348 183.738 130.005C184.904 138.662 185.649 146.899 186.012 154.753C186.375 162.608 186.547 169.201 186.547 174.552C186.547 185.254 184.273 195.02 179.726 203.849C175.179 212.678 169.161 220.265 161.672 226.59C154.183 232.916 145.663 237.828 136.13 241.306C126.596 244.784 116.834 246.523 106.842 246.523Z" fill="black"/>
<path d="M233.62 245.452C222.214 245.452 212.758 242.203 205.269 235.686C197.78 229.169 194.035 220.034 194.035 208.262C194.035 202.911 194.666 195.191 195.907 185.119C197.149 175.048 199.155 164.078 201.925 152.211C204.696 140.343 208.211 128.265 212.49 115.958C216.77 103.65 221.947 92.4515 228.003 82.3801C234.059 72.3088 241.071 64.053 248.999 57.6318C256.928 51.2106 265.888 48 275.879 48C285.871 48 294.831 51.2488 302.759 57.7656C310.688 64.2823 317.642 72.6528 323.622 82.9152C329.582 93.1777 334.722 104.549 339.001 117.028C343.28 129.507 346.719 141.681 349.298 153.548C351.877 165.416 353.807 176.328 355.049 186.323C356.291 196.318 356.921 203.809 356.921 208.797C356.921 214.511 355.947 219.633 353.979 224.181C352.011 228.73 349.337 232.571 345.955 235.686C342.574 238.801 338.504 241.209 333.785 242.91C329.067 244.611 323.927 245.452 318.406 245.452C315.197 245.452 311.815 245.089 308.243 244.381C304.67 243.674 301.422 242.47 298.48 240.77C295.538 239.069 293.093 236.852 291.125 234.081C289.157 231.31 288.183 227.965 288.183 224.048C288.183 221.372 288.278 218.467 288.45 215.352C288.622 212.237 288.45 209.294 287.915 206.523C287.38 203.752 286.215 201.44 284.438 199.567C282.661 197.694 279.719 196.758 275.612 196.758C270.091 196.758 266.48 198.592 264.78 202.242C263.079 205.893 262.239 210.04 262.239 214.683C262.239 216.652 262.334 218.525 262.506 220.302C262.678 222.079 262.774 223.952 262.774 225.921C262.774 229.666 261.837 232.781 259.965 235.285C258.093 237.788 255.686 239.795 252.744 241.305C249.802 242.814 246.63 243.885 243.249 244.515C239.867 245.146 236.638 245.452 233.62 245.452ZM274.542 168.13C278.115 168.13 280.56 166.83 281.897 164.25C283.235 161.67 283.903 158.861 283.903 155.823C283.903 154.752 283.769 152.383 283.502 148.732C283.235 145.082 282.738 141.337 282.031 137.495C281.324 133.654 280.388 130.233 279.223 127.195C278.057 124.156 276.586 122.646 274.809 122.646C273.033 122.646 271.504 124.213 270.263 127.328C269.021 130.444 268.027 134.017 267.32 138.03C266.614 142.044 266.117 145.885 265.849 149.535C265.582 153.185 265.448 155.651 265.448 156.893C265.448 159.931 266.117 162.549 267.454 164.785C268.791 167.021 271.16 168.13 274.542 168.13Z" fill="black"/>
<path d="M512.853 244.378C509.643 244.378 506.166 243.881 502.421 242.907C498.677 241.932 495.162 240.403 491.857 238.358C488.551 236.313 485.8 233.848 483.565 231.001C481.33 228.153 480.222 224.847 480.222 221.101C480.222 215.922 480.986 210.667 482.495 205.316C484.005 199.965 485.304 194.709 486.374 189.53C488.15 182.574 489.545 175.522 490.519 168.394C491.494 161.266 491.99 154.042 491.99 146.723C491.99 145.48 491.723 144.009 491.188 142.308C490.653 140.607 489.488 139.766 487.711 139.766C486.106 139.766 484.769 140.875 483.699 143.111C482.629 145.347 481.597 148.099 480.623 151.405C479.649 154.711 478.579 158.323 477.413 162.24C476.248 166.158 474.777 169.77 473 173.076C471.224 176.382 469.027 179.134 466.447 181.37C463.868 183.606 460.601 184.715 456.685 184.715C453.112 184.715 450.228 183.778 447.992 181.905C445.757 180.032 444.019 177.72 442.777 174.949C441.535 172.178 440.599 169.197 439.968 165.986C439.338 162.776 438.765 159.794 438.23 157.023C437.695 154.252 437.122 151.94 436.491 150.067C435.861 148.194 434.848 147.258 433.416 147.258C432.174 147.258 431.18 147.793 430.473 148.863C429.767 149.933 429.27 151.233 429.002 152.742C428.735 154.252 428.563 155.724 428.467 157.157C428.372 158.59 428.334 159.565 428.334 160.1C428.334 166.521 429.27 173.076 431.142 179.765C433.014 186.454 435.097 192.741 437.428 198.627C439.739 204.513 441.841 209.826 443.713 214.546C445.585 219.267 446.521 222.879 446.521 225.382C446.521 229.128 445.012 232.243 441.974 234.746C438.937 237.25 435.326 239.199 431.142 240.632C426.939 242.066 422.621 243.04 418.17 243.576C413.719 244.111 410.051 244.378 407.204 244.378C400.785 244.378 395.206 242.601 390.488 239.027C385.769 235.453 381.795 230.771 378.585 224.981C375.376 219.19 372.739 212.712 370.695 205.583C368.651 198.455 367.084 191.231 366.015 183.912C364.945 176.593 364.238 169.598 363.875 162.909C363.512 156.221 363.34 150.564 363.34 145.92C363.34 141.276 363.435 136.116 363.607 129.867C363.779 123.618 364.238 117.12 364.945 110.336C365.651 103.551 366.779 96.7863 368.288 90.002C369.797 83.2177 371.994 77.1596 374.841 71.8086C377.687 66.4576 381.298 62.1386 385.673 58.8325C390.048 55.5263 395.34 53.8828 401.587 53.8828C410.146 53.8828 417.597 55.1823 423.921 57.7623C430.244 60.3422 435.116 65.9225 438.497 74.4841C439.204 76.2614 440.236 78.5356 441.573 81.3067C442.911 84.0777 444.477 86.7532 446.254 89.3331C448.031 91.9131 450.037 94.1108 452.272 95.8881C454.507 97.6654 456.857 98.5636 459.36 98.5636C461.862 98.5636 464.002 97.6272 465.779 95.7543C467.555 93.8815 469.16 91.7029 470.593 89.1994C472.026 86.6959 473.23 84.0777 474.204 81.3067C475.178 78.5356 476.038 76.2614 476.745 74.4841C479.954 66.6296 484.406 61.3742 490.118 58.6987C495.83 56.0232 502.689 54.6855 510.713 54.6855C513.75 54.6855 517.132 55.125 520.876 56.0232C524.621 56.9214 528.232 58.2018 531.709 59.9027C535.186 61.6035 538.357 63.6102 541.204 65.9225C544.05 68.2349 546.286 70.7384 547.89 73.4139C549.495 76.4525 550.794 81.7462 551.769 89.3331C552.743 96.9201 553.507 105.08 554.042 113.814C554.577 122.548 554.883 130.899 554.978 138.83C555.074 146.761 555.112 152.609 555.112 156.354C555.112 157.788 555.074 160.463 554.978 164.381C554.883 168.299 554.806 172.847 554.711 178.026C554.615 183.205 554.481 188.632 554.31 194.346C554.138 200.06 553.908 205.411 553.641 210.399C553.373 215.387 553.068 219.725 552.705 223.376C552.342 227.026 551.902 229.3 551.367 230.198C549.935 233.046 547.661 235.415 544.547 237.288C541.433 239.161 537.994 240.632 534.25 241.703C530.505 242.773 526.761 243.48 523.016 243.843C519.272 244.206 515.89 244.378 512.853 244.378Z" fill="black"/>
<path d="M714.79 244.378C711.58 244.378 708.103 243.881 704.359 242.907C700.614 241.932 697.099 240.403 693.794 238.358C690.489 236.313 687.738 233.848 685.503 231.001C683.267 228.153 682.159 224.847 682.159 221.101C682.159 215.922 682.924 210.667 684.433 205.316C685.942 199.965 687.241 194.709 688.311 189.53C690.088 182.574 691.482 175.522 692.457 168.394C693.431 161.266 693.928 154.042 693.928 146.723C693.928 145.48 693.66 144.009 693.125 142.308C692.59 140.607 691.425 139.766 689.648 139.766C688.044 139.766 686.706 140.875 685.636 143.111C684.567 145.347 683.535 148.099 682.561 151.405C681.586 154.711 680.516 158.323 679.351 162.24C678.186 166.158 676.715 169.77 674.938 173.076C673.161 176.382 670.964 179.134 668.385 181.37C665.806 183.606 662.539 184.715 658.622 184.715C655.05 184.715 652.165 183.778 649.93 181.905C647.695 180.032 645.956 177.72 644.714 174.949C643.472 172.178 642.536 169.197 641.906 165.986C641.275 162.776 640.702 159.794 640.167 157.023C639.632 154.252 639.059 151.94 638.429 150.067C637.798 148.194 636.786 147.258 635.353 147.258C634.111 147.258 633.118 147.793 632.411 148.863C631.704 149.933 631.207 151.233 630.94 152.742C630.672 154.252 630.5 155.724 630.405 157.157C630.309 158.59 630.271 159.565 630.271 160.1C630.271 166.521 631.207 173.076 633.08 179.765C634.952 186.454 637.053 192.741 639.365 198.627C641.677 204.513 643.778 209.826 645.65 214.546C647.523 219.267 648.459 222.879 648.459 225.382C648.459 229.128 646.95 232.243 643.912 234.746C640.874 237.25 637.263 239.199 633.08 240.632C628.896 242.066 624.559 243.04 620.108 243.576C615.656 244.111 611.988 244.378 609.142 244.378C602.722 244.378 597.144 242.601 592.425 239.027C587.706 235.453 583.732 230.771 580.523 224.981C577.313 219.19 574.677 212.712 572.633 205.583C570.588 198.455 569.022 191.231 567.952 183.912C566.882 176.593 566.175 169.598 565.812 162.909C565.449 156.221 565.277 150.564 565.277 145.92C565.277 141.276 565.373 136.116 565.545 129.867C565.717 123.618 566.175 117.12 566.882 110.336C567.589 103.551 568.716 96.7863 570.225 90.002C571.735 83.2177 573.932 77.1596 576.778 71.8086C579.625 66.4576 583.236 62.1386 587.611 58.8325C591.986 55.5263 597.278 53.8828 603.525 53.8828C612.084 53.8828 619.534 55.1823 625.858 57.7623C632.182 60.3422 637.053 65.9225 640.435 74.4841C641.142 76.2614 642.173 78.5356 643.511 81.3067C644.848 84.0777 646.415 86.7532 648.191 89.3331C649.968 91.9131 651.974 94.1108 654.209 95.8881C656.445 97.6654 658.794 98.5636 661.297 98.5636C663.8 98.5636 665.94 97.6272 667.716 95.7543C669.493 93.8815 671.098 91.7029 672.531 89.1994C673.963 86.6959 675.167 84.0777 676.141 81.3067C677.116 78.5356 677.975 76.2614 678.682 74.4841C681.892 66.6296 686.343 61.3742 692.056 58.6987C697.768 56.0232 704.626 54.6855 712.65 54.6855C715.688 54.6855 719.069 55.125 722.814 56.0232C726.558 56.9214 730.169 58.2018 733.646 59.9027C737.123 61.6035 740.295 63.6102 743.141 65.9225C745.988 68.2349 748.223 70.7384 749.828 73.4139C751.433 76.4525 752.732 81.7462 753.706 89.3331C754.68 96.9201 755.445 105.08 755.98 113.814C756.514 122.548 756.82 130.899 756.916 138.83C757.011 146.761 757.049 152.609 757.049 156.354C757.049 157.788 757.011 160.463 756.916 164.381C756.82 168.299 756.744 172.847 756.648 178.026C756.553 183.205 756.419 188.632 756.247 194.346C756.075 200.06 755.846 205.411 755.578 210.399C755.311 215.387 755.005 219.725 754.642 223.376C754.279 227.026 753.84 229.3 753.305 230.198C751.872 233.046 749.599 235.415 746.485 237.288C743.37 239.161 739.932 240.632 736.187 241.703C732.443 242.773 728.698 243.48 724.954 243.843C721.209 244.206 717.828 244.378 714.79 244.378Z" fill="black"/>
<path d="M838.357 244.648C822.672 244.648 810.445 243.31 801.715 240.635C792.984 237.959 786.507 233.545 782.323 227.391C778.139 221.237 775.599 213.115 774.701 203.044C773.803 192.973 773.363 180.608 773.363 165.988C773.363 151.369 774.166 137.189 775.77 123.983C777.375 110.778 780.317 99.2347 784.597 89.3354C788.876 79.4361 794.894 71.5434 802.651 65.6573C810.407 59.7712 820.437 56.8281 832.74 56.8281C838.797 56.8281 845.712 57.0575 853.469 57.497C861.225 57.9365 868.485 59.3316 875.267 61.644C882.049 63.9564 887.8 67.4346 892.519 72.0785C897.238 76.7224 899.607 83.22 899.607 91.6096C899.607 93.75 899.473 96.3873 899.205 99.5023C898.938 102.617 898.307 105.656 897.333 108.599C896.359 111.542 894.926 114.084 893.054 116.224C891.181 118.365 888.736 119.435 885.698 119.435C883.024 119.435 879.986 118.766 876.605 117.428C873.223 116.09 869.555 114.581 865.639 112.88C861.722 111.179 857.787 109.669 853.87 108.331C849.954 106.994 846.114 106.325 842.369 106.325C837.727 106.325 834.574 107.032 832.874 108.465C831.174 109.899 830.333 113.014 830.333 117.829C830.333 122.282 831.441 125.053 833.677 126.123C835.912 127.194 838.988 127.729 842.904 127.729C846.82 127.729 851.024 127.194 854.94 126.123C858.856 125.053 862.868 124.518 866.976 124.518C869.651 124.518 872.058 125.225 874.197 126.659C876.337 128.092 878.114 129.907 879.547 132.143C880.98 134.379 882.088 136.787 882.89 139.367C883.692 141.947 884.094 144.412 884.094 146.725C884.094 148.693 883.731 151.006 883.024 153.681C882.317 156.357 881.285 158.937 879.948 161.44C878.611 163.944 876.968 166.084 875 167.861C873.032 169.639 870.892 170.537 868.581 170.537C864.473 170.537 860.385 169.906 856.277 168.664C852.17 167.422 848.081 166.791 843.974 166.791C840.229 166.791 837.517 167.192 835.816 167.995C834.116 168.798 833.275 171.244 833.275 175.353C833.275 182.481 834.976 187.087 838.357 189.131C841.739 191.176 846.744 192.208 853.335 192.208C856.908 192.208 860.461 191.845 864.034 191.138C867.606 190.431 871.16 189.667 874.732 188.864C878.305 188.061 881.82 187.354 885.297 186.723C888.774 186.093 892.289 185.787 895.862 185.787C898.365 185.787 900.447 186.628 902.147 188.329C903.848 190.03 905.223 192.113 906.293 194.616C907.363 197.12 908.165 199.7 908.7 202.375C909.235 205.051 909.503 207.363 909.503 209.331C909.503 216.288 906.79 222.04 901.345 226.588C895.9 231.137 889.405 234.749 881.82 237.424C874.236 240.1 866.403 241.972 858.283 243.043C850.164 244.113 843.535 244.648 838.357 244.648Z" fill="black"/>
<path d="M1036.8 243.847C1028.77 243.847 1022.39 242.643 1017.67 240.235C1012.96 237.827 1009.38 234.712 1006.98 230.871C1004.57 227.03 1003 222.672 1002.3 217.761C1001.59 212.85 1001.09 207.862 1000.82 202.778C1000.56 197.695 1000.25 192.783 999.889 188.063C999.526 183.343 998.551 179.196 996.946 175.622C996.411 174.552 995.514 173.711 994.272 173.08C993.03 172.449 991.693 172.144 990.26 172.144C988.12 172.144 986.783 173.176 986.248 175.221C985.713 177.265 985.445 179.1 985.445 180.705C985.445 185.521 985.942 189.764 986.916 193.414C987.891 197.064 988.961 200.466 990.126 203.581C991.291 206.696 992.361 209.734 993.336 212.677C994.31 215.621 994.807 218.869 994.807 222.443C994.807 226.189 993.565 229.438 991.062 232.209C988.559 234.98 985.579 237.254 982.102 239.031C978.625 240.808 974.976 242.146 971.136 243.044C967.296 243.943 963.953 244.382 961.106 244.382C955.222 244.382 949.605 242.949 944.256 240.101C938.907 237.254 934.188 232.744 930.08 226.59C925.973 220.436 922.725 212.506 920.318 202.778C917.911 193.051 916.707 181.24 916.707 167.328C916.707 158.059 916.803 148.829 916.975 139.636C917.146 130.444 917.739 121.711 918.713 113.417C919.687 105.123 921.292 97.3636 923.527 90.1398C925.763 82.9159 928.915 76.6667 933.022 71.4113C937.13 66.1558 942.345 62.0088 948.669 58.9702C954.993 55.9316 962.806 54.4219 972.072 54.4219C978.663 54.4219 985.713 54.6512 993.202 55.0907C1000.69 55.5303 1008.14 56.4285 1015.54 57.7662C1022.93 59.104 1030.07 60.9386 1036.93 63.251C1043.79 65.5634 1049.9 68.602 1055.25 72.3477C1060.6 76.0934 1064.84 80.5462 1067.96 85.7252C1071.07 90.9042 1072.64 97.0578 1072.64 104.186C1072.64 112.041 1071.53 118.863 1069.3 124.654C1067.06 130.444 1064.21 135.489 1060.74 139.77C1057.26 144.051 1053.38 147.567 1049.1 150.338C1044.82 153.109 1040.72 155.46 1036.8 157.428C1039.3 159.569 1041.61 162.015 1043.75 164.786C1045.89 167.557 1047.67 170.443 1049.1 173.481C1051.07 177.399 1052.88 180.801 1054.59 183.648C1056.29 186.496 1058.06 189.171 1059.93 191.675C1061.81 194.178 1063.77 196.758 1065.82 199.434C1067.86 202.109 1070.14 205.224 1072.64 208.798C1074.24 210.938 1075.62 213.117 1076.78 215.353C1077.95 217.589 1078.52 220.131 1078.52 222.978C1078.52 226.896 1076.96 230.202 1073.84 232.877C1070.73 235.553 1066.98 237.693 1062.61 239.299C1058.23 240.904 1053.65 242.07 1048.83 242.777C1044.02 243.484 1040.01 243.847 1036.8 243.847ZM992.399 133.617C996.507 133.617 999.793 132.413 1002.3 130.005C1004.8 127.597 1006.04 123.985 1006.04 119.169C1006.04 114.888 1004.74 111.849 1002.16 110.072C999.583 108.295 996.679 107.397 993.469 107.397C989.19 107.397 985.484 108.333 982.37 110.206C979.256 112.079 977.689 115.595 977.689 120.774C977.689 125.055 979.122 128.266 981.968 130.406C984.815 132.546 988.292 133.617 992.399 133.617Z" fill="black"/>
<path d="M1125.6 244.384C1113.66 244.384 1104.6 241.04 1098.45 234.351C1092.3 227.663 1088.51 218.337 1087.08 206.392C1084.58 184.453 1083.64 162.782 1084.27 141.378C1084.9 119.974 1086.72 98.4743 1089.76 76.8983C1090.29 73.1526 1091.86 69.9802 1094.44 67.4003C1097.02 64.8204 1100.05 62.8137 1103.53 61.3804C1107.01 59.9471 1110.58 58.9343 1114.23 58.3036C1117.88 57.673 1121.14 57.3672 1123.99 57.3672C1130.77 57.3672 1136.87 58.9725 1142.31 62.1831C1147.76 65.3937 1151.18 71.1842 1152.61 79.5738C1154.21 88.8425 1155.55 99.4107 1156.62 111.278C1157.69 123.146 1158.63 135.262 1159.43 147.665C1160.23 160.068 1160.81 172.28 1161.17 184.32C1161.53 196.359 1161.7 207.195 1161.7 216.827C1161.7 221.643 1160.54 225.79 1158.23 229.268C1155.91 232.746 1153.01 235.593 1149.53 237.829C1146.06 240.065 1142.18 241.709 1137.9 242.779C1133.62 243.849 1129.51 244.384 1125.6 244.384Z" fill="black"/>
<path d="M1306.67 249.997C1300.96 249.997 1295.7 249.729 1290.89 249.194C1286.07 248.659 1281.89 247.359 1278.32 245.315C1274.75 243.27 1271.99 240.327 1270.03 236.485C1268.06 232.644 1267.08 227.523 1267.08 221.101C1267.08 216.993 1267.22 212.846 1267.49 208.66C1267.75 204.475 1267.89 200.328 1267.89 196.219C1267.89 193.544 1266.91 189.894 1264.95 185.25C1262.98 180.606 1260.57 176.019 1257.72 171.471C1254.88 166.923 1251.97 163.005 1249.03 159.699C1246.09 156.393 1243.55 154.749 1241.41 154.749C1240.17 154.749 1239.44 155.647 1239.27 157.425C1239.1 159.202 1239 160.54 1239 161.438C1239 167.324 1239.31 172.503 1239.94 176.956C1240.57 181.408 1241.45 185.651 1242.61 189.664C1243.78 193.678 1245.15 197.729 1246.76 201.838C1248.36 205.947 1250.14 210.667 1252.11 216.018C1252.64 217.451 1253.18 218.961 1253.71 220.566C1254.25 222.172 1254.51 223.777 1254.51 225.382C1254.51 229.128 1253 232.243 1249.97 234.746C1246.93 237.25 1243.32 239.199 1239.13 240.632C1234.95 242.066 1230.61 243.04 1226.16 243.576C1221.71 244.111 1218.04 244.378 1215.2 244.378C1212.35 244.378 1209.27 244.206 1205.97 243.843C1202.66 243.48 1199.51 242.811 1196.47 241.836C1193.44 240.862 1190.69 239.429 1188.18 237.556C1185.68 235.683 1183.73 233.313 1182.3 230.466C1179.99 225.478 1178.15 218.598 1176.82 209.864C1175.48 201.131 1174.54 191.843 1174.01 182.039C1173.47 172.235 1173.17 162.68 1173.07 153.411C1172.98 144.143 1172.94 136.46 1172.94 130.402V101.373C1172.94 91.3015 1174.18 81.708 1176.68 72.6113C1177.58 69.4007 1179.45 66.8208 1182.3 64.8523C1185.15 62.8839 1188.45 61.336 1192.19 60.1702C1195.94 59.0045 1199.78 58.2592 1203.7 57.8961C1207.61 57.533 1210.92 57.361 1213.59 57.361C1219.48 57.361 1225 58.3929 1230.17 60.4378C1235.35 62.4826 1239.44 66.2857 1242.48 71.8086C1243.38 73.4139 1244.58 75.9557 1246.09 79.4338C1247.6 82.912 1249.3 86.8296 1251.17 91.206C1253.04 95.5823 1255.05 100.073 1257.19 104.717C1259.33 109.361 1261.51 113.585 1263.74 117.426C1265.98 121.267 1268.12 124.42 1270.16 126.924C1272.2 129.427 1274.04 130.67 1275.64 130.67C1276.18 130.67 1276.58 130.268 1276.85 129.466C1277.11 128.663 1277.29 127.765 1277.38 126.79C1277.48 125.815 1277.52 124.822 1277.52 123.847V122.108C1277.52 118.19 1276.94 114.253 1275.78 110.336C1274.61 106.418 1273.27 102.481 1271.77 98.5636C1270.26 94.6459 1268.92 90.7091 1267.75 86.7914C1266.59 82.8737 1266.02 78.9369 1266.02 75.0192C1266.02 71.6366 1266.91 68.6363 1268.69 66.0563C1270.47 63.4764 1272.74 61.2787 1275.51 59.5014C1278.28 57.7241 1281.26 56.329 1284.47 55.3543C1287.68 54.3797 1290.72 53.8828 1293.56 53.8828C1296.07 53.8828 1299.09 54.1504 1302.66 54.6855C1306.23 55.2206 1309.75 56.0614 1313.22 57.2272C1316.7 58.3929 1319.87 59.8071 1322.72 61.508C1325.56 63.2088 1327.63 65.2919 1328.87 67.7954C1330.84 71.7131 1332.52 76.7201 1333.95 82.7782C1335.38 88.8363 1336.63 95.4868 1337.7 102.711C1338.77 109.934 1339.66 117.521 1340.37 125.452C1341.08 133.383 1341.67 141.066 1342.11 148.462C1342.55 155.857 1342.87 162.776 1343.04 169.197C1343.22 175.618 1343.31 181.064 1343.31 185.517C1343.31 187.658 1343.27 190.868 1343.18 195.149C1343.08 199.43 1343.01 203.883 1342.91 208.527C1342.82 213.17 1342.64 217.489 1342.38 221.503C1342.11 225.516 1341.71 228.325 1341.17 229.93C1340.27 232.778 1338.5 235.415 1335.82 237.823C1333.15 240.231 1330.11 242.333 1326.73 244.111C1323.35 245.888 1319.81 247.321 1316.16 248.391C1312.52 249.462 1309.34 249.997 1306.67 249.997Z" fill="black"/>
<path d="M1443.08 244.652C1431.31 244.652 1419.85 243.276 1408.71 240.505C1397.57 237.734 1387.67 233.147 1379.02 226.726C1370.37 220.305 1363.37 211.839 1358.02 201.309C1352.67 190.779 1350 177.765 1350 162.247C1350 148.506 1352.37 135.32 1357.09 122.649C1361.81 109.979 1368.68 98.8374 1377.68 89.2056C1386.68 79.5738 1397.65 71.8531 1410.58 66.0626C1423.51 60.272 1438.26 57.3672 1454.85 57.3672C1458.76 57.3672 1463.1 57.7685 1467.82 58.5712C1472.54 59.3738 1476.95 60.7498 1481.06 62.7182C1485.17 64.6866 1488.58 67.3621 1491.35 70.7447C1494.13 74.1273 1495.5 78.5036 1495.5 83.8546C1495.5 86.3581 1495.06 89.6069 1494.16 93.6202C1493.27 97.6334 1491.99 101.513 1490.29 105.259C1488.58 109.004 1486.58 112.253 1484.27 115.024C1481.96 117.795 1479.36 119.171 1476.51 119.171C1474.73 119.171 1472.46 118.674 1469.69 117.7C1466.92 116.725 1464.04 115.693 1461 114.623C1457.96 113.553 1454.85 112.521 1451.64 111.546C1448.43 110.571 1445.39 110.074 1442.54 110.074C1436.66 110.074 1431.67 111.508 1427.56 114.355C1423.46 117.203 1420.11 120.815 1417.53 125.191C1414.96 129.567 1413.08 134.383 1411.92 139.639C1410.75 144.894 1410.18 150.035 1410.18 155.023C1410.18 158.941 1410.89 163.145 1412.32 167.598C1413.75 172.05 1415.8 176.159 1418.47 179.905C1421.15 183.651 1424.49 186.766 1428.5 189.269C1432.51 191.773 1437.1 193.015 1442.28 193.015C1445.31 193.015 1447.93 192.384 1450.17 191.142C1452.4 189.9 1454.31 188.333 1455.92 186.46C1457.52 184.587 1458.72 182.485 1459.53 180.172C1460.33 177.86 1460.73 175.72 1460.73 173.751C1460.73 169.643 1459.43 167.158 1456.85 166.26C1454.27 165.362 1450.66 164.922 1446.02 164.922C1443.71 164.922 1441.43 164.788 1439.2 164.521C1436.96 164.253 1434.96 163.451 1433.18 162.113C1431.4 160.775 1429.93 158.807 1428.77 156.227C1427.6 153.647 1427.03 150.035 1427.03 145.391C1427.03 140.747 1427.66 137.193 1428.9 134.689C1430.14 132.186 1431.88 130.274 1434.12 128.937C1436.35 127.599 1439.03 126.796 1442.14 126.529C1445.26 126.261 1448.69 126.127 1452.44 126.127C1463.31 126.127 1472.27 127.026 1479.32 128.803C1486.37 130.58 1491.93 133.39 1496.04 137.231C1500.14 141.072 1502.99 146.022 1504.59 152.08C1506.2 158.138 1507 165.553 1507 174.286C1507 184.816 1505.7 194.391 1503.12 203.048C1500.54 211.705 1496.61 219.101 1491.35 225.255C1486.1 231.408 1479.45 236.186 1471.43 239.569C1463.4 242.951 1453.95 244.652 1443.08 244.652Z" fill="black"/>
</g>
<defs>
<clipPath id="clip0_4702_35569">
<rect width="1459" height="202" fill="white" transform="translate(48 48)"/>
</clipPath>
</defs>
</svg>
