<svg width="150" height="32" viewBox="0 0 150 32" fill="none" xmlns="http://www.w3.org/2000/svg">
<g clip-path="url(#clip0_1225_86961)">
<path d="M81.6176 0.551758H69.4853V31.4483H81.6176V0.551758Z" fill="black"/>
<path d="M31.8419 32C31.8419 32 31.9853 27.4648 31.9853 21.7269C31.9853 20.811 32.0404 17.7434 31.6213 14.3779C31.6213 14.3559 31.489 13.4069 31.489 13.4069C30.2537 5.80414 23.7243 0 15.8493 0C7.09191 0 0 7.16138 0 16C0 24.8386 7.09191 32 15.8493 32C18.5625 32 21.1103 31.3159 23.3382 30.1021L16.6103 16.7614L31.8419 32Z" fill="black"/>
<path d="M66.1765 0.551758C59.2831 0.551758 52.864 2.52693 47.4265 5.94762V0.551758H35.2941V31.4483H47.4265V26.0524C52.864 29.4731 59.2831 31.4483 66.1765 31.4483V16.7835H50.7353L66.1765 12.3697V0.551758Z" fill="black"/>
<path d="M115.809 0.551758C108.915 0.551758 102.496 2.549 97.0588 5.96969V0.551758H84.9265V31.4483H100.368V26.0524H115.809V16.7835H100.368L115.809 12.3697V0.551758Z" fill="black"/>
<path d="M138.529 0.551758L132.551 12.8111L134.118 0.551758H119.118C119.118 6.51038 120.816 12.0607 123.739 16.7724H119.118V31.4483C124.743 31.4483 130.015 29.9366 134.559 27.2993C143.989 21.9366 150.077 11.3987 150 0.551758H138.529Z" fill="black"/>
</g>
<defs>
<clipPath id="clip0_1225_86961">
<rect width="150" height="32" fill="white"/>
</clipPath>
</defs>
</svg>
